<svg width="21" height="24" viewBox="0 0 21 24" fill="none" xmlns="http://www.w3.org/2000/svg">
<path d="M3.8034 18.1529C3.8034 18.7797 4.31499 19.2913 4.94442 19.2913H6.24883V22.5161C6.24883 23.3331 6.90505 24 7.71126 24C8.52016 24 9.1737 23.3357 9.1737 22.5161V19.2886H11.4504V22.5135C11.4504 23.3304 12.1066 23.9973 12.9128 23.9973C13.7217 23.9973 14.3753 23.3331 14.3753 22.5135V19.2886H15.6797C16.3091 19.2886 16.8207 18.777 16.8207 18.1503V7.56502H3.8034V18.1529ZM13.3682 2.07955L14.5708 0.338553C14.6404 0.236772 14.6243 0.100171 14.5306 0.0332095C14.4369 -0.0310734 14.3029 0.00106819 14.2333 0.102849L12.9851 1.91348C12.1629 1.58939 11.2468 1.40993 10.2853 1.40993C9.32369 1.40993 8.40766 1.58939 7.58538 1.91348L6.33722 0.105528C6.26758 0.0037466 6.13366 -0.0310732 6.03991 0.0358881C5.94616 0.100171 5.93009 0.234093 5.99973 0.341231L7.20236 2.08223C5.28994 2.97147 3.95072 4.65622 3.7793 6.62488H16.7966C16.6198 4.65354 15.2779 2.96879 13.3682 2.07955ZM7.53716 4.82496C7.39466 4.82496 7.25536 4.7827 7.13687 4.70353C7.01839 4.62436 6.92604 4.51184 6.87151 4.38018C6.81697 4.24853 6.8027 4.10366 6.83051 3.96389C6.85831 3.82413 6.92693 3.69575 7.02769 3.59498C7.12846 3.49422 7.25684 3.4256 7.3966 3.3978C7.53637 3.37 7.68123 3.38426 7.81289 3.4388C7.94454 3.49333 8.05707 3.58568 8.13624 3.70417C8.21541 3.82265 8.25767 3.96195 8.25767 4.10446C8.25717 4.29539 8.1811 4.47837 8.04609 4.61338C7.91108 4.7484 7.7281 4.82447 7.53716 4.82496ZM13.1191 4.82496C12.9766 4.82496 12.8373 4.7827 12.7188 4.70353C12.6003 4.62436 12.5079 4.51184 12.4534 4.38018C12.3989 4.24853 12.3846 4.10366 12.4124 3.96389C12.4402 3.82413 12.5088 3.69575 12.6096 3.59498C12.7104 3.49422 12.8387 3.4256 12.9785 3.3978C13.1183 3.37 13.2631 3.38426 13.3948 3.4388C13.5264 3.49333 13.639 3.58568 13.7181 3.70417C13.7973 3.82265 13.8396 3.96195 13.8396 4.10446C13.8391 4.29539 13.763 4.47837 13.628 4.61338C13.493 4.7484 13.31 4.82447 13.1191 4.82496ZM19.1027 7.52216C18.2938 7.52216 17.6403 8.18642 17.6403 9.00603V14.8022C17.6403 15.6191 18.2965 16.2861 19.1027 16.2861C19.9116 16.2861 20.5652 15.6218 20.5652 14.8022V9.00335C20.5678 8.18374 19.9143 7.52216 19.1027 7.52216ZM1.46243 7.52216C0.653542 7.52216 0 8.18642 0 9.00603V14.8022C0 15.6191 0.656221 16.2861 1.46243 16.2861C2.27133 16.2861 2.92487 15.6218 2.92487 14.8022V9.00335C2.92487 8.18374 2.26865 7.52216 1.46243 7.52216Z" fill="#FAFAFA"/>
</svg>
