<svg width="21" height="24" viewBox="0 0 21 24" fill="none" xmlns="http://www.w3.org/2000/svg">
<path d="M15.088 0.0120105C15.037 -0.0449893 13.1995 0.0345104 11.6005 1.77C10.0015 3.50399 10.2475 5.49298 10.2835 5.54398C10.3195 5.59498 12.5635 5.67448 13.996 3.65699C15.4285 1.6395 15.139 0.0705102 15.088 0.0120105ZM20.059 17.6114C19.987 17.4674 16.5715 15.7604 16.8895 12.4784C17.2075 9.19496 19.402 8.29497 19.4365 8.19747C19.471 8.09997 18.541 7.01248 17.5555 6.46198C16.8319 6.07386 16.0311 5.85149 15.211 5.81098C15.049 5.80648 14.4865 5.66848 13.33 5.98498C12.568 6.19348 10.8505 6.86848 10.378 6.89548C9.90403 6.92248 8.49403 6.11248 6.97754 5.89798C6.00705 5.71048 4.97805 6.09448 4.24156 6.38998C3.50656 6.68398 2.10857 7.52097 1.13057 9.74546C0.152576 11.9685 0.664074 15.4904 1.03007 16.5854C1.39607 17.6789 1.96757 19.4714 2.93956 20.7794C3.80356 22.2554 4.94955 23.2799 5.42805 23.6279C5.90655 23.9759 7.25654 24.2069 8.19254 23.7284C8.94553 23.2664 10.3045 23.0009 10.8415 23.0204C11.377 23.0399 12.433 23.2514 13.5145 23.8289C14.371 24.1244 15.181 24.0014 15.9925 23.6714C16.804 23.3399 17.9785 22.0829 19.3495 19.5344C19.87 18.3494 20.107 17.7089 20.059 17.6114Z" fill="#FAFAFA"/>
</svg>
