<svg width="25" height="18" viewBox="0 0 25 18" fill="none" xmlns="http://www.w3.org/2000/svg">
<path d="M3.41801 0.600098H21.968C23.718 0.600098 24.6 1.4261 24.6 3.1061V14.8941C24.6 16.5601 23.718 17.4001 21.968 17.4001H3.41801C1.66801 17.4001 0.786011 16.5601 0.786011 14.8941V3.1061C0.786011 1.4261 1.66801 0.600098 3.41801 0.600098ZM12.686 12.6401L22.122 4.8981C22.458 4.6181 22.724 3.9741 22.304 3.4001C21.898 2.8261 21.156 2.8121 20.666 3.1621L12.686 8.5661L4.72001 3.1621C4.23001 2.8121 3.48801 2.8261 3.08201 3.4001C2.66201 3.9741 2.92801 4.6181 3.26401 4.8981L12.686 12.6401Z" fill="white"/>
</svg>
