<svg width="252" height="284" viewBox="0 0 252 284" fill="none" xmlns="http://www.w3.org/2000/svg">
<g filter="url(#filter0_d_10_645)">
<path d="M164.014 52.7371C163.931 56.9521 163.723 69.528 164.055 72.6961L164.014 52.7371ZM164.014 52.7371C166.033 51.1393 170.487 47.2136 170.626 43.3843C170.805 38.4256 166.559 38.1639 166.559 38.1639L164.014 52.7371ZM127.773 26.7449C127.773 26.7449 128.396 45.299 129.751 52.3239C131.107 59.3488 134.385 64.0458 137.304 65.5335C140.222 67.0211 144.206 66.6905 144.206 66.6905L143.874 71.6768" stroke="black" stroke-width="1.15966" stroke-linecap="round" stroke-linejoin="round"/>
<path fill-rule="evenodd" clip-rule="evenodd" d="M40.6441 0.174194C40.6441 0.174194 49.5382 25.395 52.1387 35.1472C54.7392 44.8995 57.1321 54.941 57.1321 54.941L25.3594 61.5113L5.27496 23.3564L40.6441 0.174194Z" fill="#EF8354"/>
<path fill-rule="evenodd" clip-rule="evenodd" d="M44.0468 1.97885L42.6083 2.80531L42.1103 1.40033L5.27496 23.3566L23.5612 74.2941L60.7424 56.8558L47.3527 13.4942C47.989 13.0121 48.5008 12.6126 48.5008 12.6126L45.928 2.81909L44.4895 3.5078L44.0468 1.97885Z" fill="white"/>
<path fill-rule="evenodd" clip-rule="evenodd" d="M45.7482 85.7406C45.7482 85.7406 42.1518 76.9801 38.7491 72.407C37.9053 71.2775 37.1445 70.1343 36.4806 69.0736L36.6881 68.991L36.8817 68.8946L37.0754 68.8119L37.2552 68.743L37.269 68.7293L37.4765 68.6466L37.6702 68.564L37.8776 68.4813L38.0713 68.3849L38.1404 68.3574L38.2788 68.3023L38.4724 68.2196L38.6799 68.1232L38.8736 68.0406L39.0395 67.9717L39.081 67.9579L39.2885 67.8615L39.4822 67.7788L39.6897 67.6962L39.8971 67.5998L39.9386 67.586L40.1046 67.5171L40.5058 67.3381L40.7133 67.2554L40.8516 67.1865L40.9207 67.159L41.1282 67.0763L41.3357 66.9799L42.6913 66.4014L42.7881 66.3601L42.9956 66.2637L43.2031 66.181L43.4105 66.0846L43.6042 66.0019H43.618L43.8255 65.9055L44.033 65.8229L44.2405 65.7265L44.448 65.6438L44.531 65.6025L44.6555 65.5474L44.8491 65.4648L45.0566 65.3683L45.2641 65.2857L45.4439 65.203L45.4716 65.1893L45.679 65.1066L45.8865 65.0102L46.094 64.9276L46.3015 64.8449L46.3568 64.8174L46.509 64.7485L46.7026 64.6658L46.9101 64.5694L47.1176 64.4868L47.2559 64.4179L47.5187 64.3077L47.7262 64.2113L47.9337 64.1286L48.1274 64.046L48.155 64.0322L48.3348 63.9496L48.5285 63.8669L48.736 63.7843L48.9296 63.6879L49.0541 63.6465L49.1371 63.6052L49.3308 63.5226L49.5382 63.4399C51.7237 62.4757 53.7986 61.5666 55.6521 60.7677C55.7351 62.944 55.7904 65.3408 55.6383 66.2361C55.334 68.0268 53.7433 73.3024 55.2371 76.6908C56.731 80.0656 45.7482 85.7406 45.7482 85.7406Z" fill="white"/>
<path d="M55.6521 60.7677C55.7351 62.944 55.7904 65.3408 55.6383 66.2361C55.334 68.0268 53.7433 73.3024 55.2371 76.6908C56.731 80.0656 45.7482 85.7406 45.7482 85.7406C45.7482 85.7406 42.1518 76.9801 38.7491 72.407C37.9053 71.2775 37.1445 70.1343 36.4806 69.0736" stroke="black" stroke-width="1.15966" stroke-linecap="round" stroke-linejoin="round"/>
<path fill-rule="evenodd" clip-rule="evenodd" d="M39.7313 260.743C39.7313 260.743 48.3349 274.862 56.4268 274.862C64.5187 274.862 66.3584 269.49 67.4096 266.762C68.4609 264.021 68.6684 261.528 68.6684 261.528L59.9679 262.024C59.9679 262.024 58.3772 269.242 55.6245 269.944C52.8719 270.633 50.6726 267.451 48.6808 263.567C46.6751 259.696 39.7313 260.743 39.7313 260.743Z" fill="#EF8354"/>
<path fill-rule="evenodd" clip-rule="evenodd" d="M108.076 191.72C108.076 191.72 108.671 218.388 109.57 235.495C110.469 252.617 114.564 275 114.564 275H183.116C185.122 251.501 191.72 199.572 189.811 178.979C189.037 170.687 108.076 191.72 108.076 191.72Z" fill="black" stroke="black" stroke-width="1.15966" stroke-linecap="round" stroke-linejoin="round"/>
<path fill-rule="evenodd" clip-rule="evenodd" d="M109.653 85.837C105.753 90.6167 86.3183 114.749 86.3183 114.749C86.3183 114.749 70.1208 86.6359 66.3861 81.0159C62.6375 75.396 60.286 72.1039 60.286 72.1039C60.286 72.1039 54.684 75.5338 49.898 78.7707C45.0982 82.0077 42.1934 85.0381 42.1934 85.0381C42.1934 85.0381 58.7368 143.152 80.5226 146.54C90.2744 148.056 101.575 141.279 109.64 134.777C109.017 146.981 105.504 188.759 107.011 192.657C108.215 195.742 112.918 198.428 133.694 199.723C154.484 201.018 182.356 190.37 185.357 188.18C188.359 185.99 191.402 182.863 191.098 175.852C190.807 168.827 195.22 127.986 195.22 127.986C195.22 127.986 203.215 111.76 197.806 93.6608C194.708 83.2474 182.632 77.7376 172.908 74.9415L172.881 74.9277C172.051 74.6797 171.193 74.4456 170.336 74.239C164.346 72.7238 159.782 72.2555 159.782 72.2555L158.744 72.4759C146.807 71.5254 135.727 72.7927 135.727 72.7927C127.013 73.1921 115.186 79.0462 109.653 85.837Z" fill="#D7F0F7"/>
<path fill-rule="evenodd" clip-rule="evenodd" d="M99.8872 170.48C99.8872 170.48 110.275 184.213 113.083 218.442C115.877 252.672 107.785 272.686 97.6879 274.573C87.6041 276.46 85.9028 271.281 83.6066 268.801C81.2966 266.308 78.3088 260.248 78.3088 260.248L85.5016 258.25C85.5016 258.25 89.7896 271.184 93.9946 270.592C98.1858 269.986 103.691 253.774 103.193 233.567C102.681 213.374 94.9906 195.853 94.9906 195.853L99.8872 170.48Z" fill="#EF8354"/>
<path fill-rule="evenodd" clip-rule="evenodd" d="M54.5591 157.876C54.5591 157.876 78.9315 152.311 91.7264 159.667C104.521 167.036 103.318 177.188 102.114 189.723C100.925 202.257 96.8581 216.693 96.8581 216.693L64.1448 227.23L35.3737 217.684L43.1613 175.893C43.1613 175.893 45.3606 161.155 54.5591 157.876Z" fill="black"/>
<path fill-rule="evenodd" clip-rule="evenodd" d="M62.7482 159.571C62.7482 159.571 80.1353 158.372 87.8261 162.257C95.5168 166.141 93.1238 171.609 90.7309 178.772C88.324 185.935 74.9344 221.059 74.9344 221.059L40.7687 216.679L49.5522 172.312C49.5522 172.312 50.9493 161.265 62.7482 159.571Z" fill="black" stroke="black" stroke-width="0.463865" stroke-linecap="round" stroke-linejoin="round"/>
<path fill-rule="evenodd" clip-rule="evenodd" d="M23.5612 74.2937C24.2528 74.5968 63.1353 57.489 63.1353 57.489L48.1688 3.85175C48.1688 3.85175 17.0186 17.3781 5.27496 23.3562L23.5612 74.2937Z" fill="#EF8354"/>
<path fill-rule="evenodd" clip-rule="evenodd" d="M14.4734 26.786L18.7614 39.7201C18.7614 39.7201 35.8995 34.1966 40.7547 32.3646C45.596 30.5189 47.74 29.472 47.74 29.472L43.452 14.9952C43.452 14.9952 24.9582 22.2543 14.4734 26.786Z" fill="white"/>
<path fill-rule="evenodd" clip-rule="evenodd" d="M227.476 177.367C227.476 177.367 225.125 176.321 223.921 178.511C222.732 180.701 211.777 200.205 211.777 200.205L206.354 209.269C205.013 210.178 204.238 210.701 204.238 210.701L203.228 213.497C203.228 213.497 203.56 214.655 204.681 215.729C204.805 215.839 204.93 215.949 205.082 216.046C207.406 217.644 221.943 224.407 221.943 224.407C221.943 224.407 225 226.597 227.296 222.823C229.593 219.035 246.233 189.53 246.233 189.53C246.233 189.53 247.312 187.863 246.911 186.431C246.911 186.431 246.551 184.819 245.5 184.131C245.417 184.075 245.085 184.213 244.531 184.489C240.174 182.588 227.476 177.367 227.476 177.367Z" fill="white" stroke="#EF8354" stroke-width="1.15966" stroke-linecap="round" stroke-linejoin="round"/>
<path fill-rule="evenodd" clip-rule="evenodd" d="M191.471 38.2332C191.471 38.2332 188.193 35.4645 187.778 33.3846C187.349 31.2909 189.769 29.817 191.498 30.7399C193.214 31.6628 194.97 35.2992 194.97 35.2992L191.471 38.2332Z" fill="black"/>
<path fill-rule="evenodd" clip-rule="evenodd" d="M209.024 59.8583L211.887 62.6683L212.178 62.3102L210.532 58.7701L209.024 59.8583Z" fill="black"/>
<path d="M119.654 90.7958C119.654 90.7958 115.864 104.432 114.162 112.091C112.461 119.749 111.562 124.46 111.562 124.46" stroke="black" stroke-width="1.15966" stroke-linecap="round" stroke-linejoin="round"/>
<path d="M44.0739 70.4783C44.0739 70.4783 48.3066 65.0375 49.427 63.481" stroke="black" stroke-width="1.15966" stroke-linecap="round" stroke-linejoin="round"/>
<path d="M138.078 72.5721C140.803 90.4237 168.066 83.5916 167.748 73.619" stroke="#6CA3B7" stroke-width="1.15966" stroke-linecap="round" stroke-linejoin="round"/>
<path d="M132.02 215.26C132.02 215.26 134.413 221.624 136.515 224.613C138.618 227.602 140.305 229.985 140.305 229.985L146.226 273.663" stroke="white" stroke-width="1.15966" stroke-linecap="round" stroke-linejoin="round"/>
<path d="M176.283 206.996L167.486 219.544" stroke="white" stroke-width="1.15966" stroke-linecap="round" stroke-linejoin="round"/>
<path d="M178.828 214.461C178.828 214.461 174.789 218.346 173.779 219.585C172.783 220.839 170.985 222.63 170.985 222.63" stroke="white" stroke-width="1.15966" stroke-linecap="round" stroke-linejoin="round"/>
<path d="M43.6596 89.8038C43.6596 89.8038 51.9313 83.2197 55.9288 80.4235C59.9264 77.6411 62.8173 75.7402 62.8173 75.7402" stroke="#6CA3B7" stroke-width="1.15966" stroke-linecap="round" stroke-linejoin="round"/>
<path fill-rule="evenodd" clip-rule="evenodd" d="M110.746 124.143C110.746 124.143 100.109 118.771 96.2496 116.981C92.4042 115.19 91.4083 131.568 90.0112 137.738C88.6142 143.896 84.2155 153.854 84.2155 153.854L88.96 152.752C88.96 152.752 90.855 153.359 92.6117 153.056C99.8183 151.83 103.304 149.088 107.551 142.986L110.704 144.226L114.702 125.645L110.746 124.143Z" fill="white" stroke="black" stroke-width="1.15966" stroke-linecap="round" stroke-linejoin="round"/>
<path fill-rule="evenodd" clip-rule="evenodd" d="M53.0381 123.372L87.024 124.226C87.7848 123.51 88.2136 123.124 88.2136 123.124L93.3315 122.683C93.3315 122.683 95.9873 124.46 96.0427 125.989C96.1948 126.402 96.2363 126.898 96.0842 127.532C95.2819 130.865 75.3219 189.475 75.3219 189.475C75.3219 189.475 74.1185 192.257 71.4765 192.051C68.8208 191.858 33.0505 188.07 33.0505 188.07C33.0505 188.07 31.8609 188.043 30.782 187.56C30.782 187.56 30.7267 187.547 30.6437 187.492C30.5469 187.45 30.4639 187.409 30.3809 187.354C29.6339 186.927 28.0847 185.825 27.3101 183.717C27.1303 183.235 28.7625 181.169 31.6119 178.07C36.716 163.758 48.7916 128.524 48.7916 128.524C48.7916 128.524 49.995 122.793 53.0381 123.372Z" fill="#EF8354"/>
<path d="M95.9867 139.295C95.9867 139.295 93.4969 144.956 91.9477 147.697C90.3985 150.438 88.9599 152.752 88.9599 152.752" stroke="black" stroke-width="1.15966" stroke-linecap="round" stroke-linejoin="round"/>
<path d="M99.6386 140.934C99.6386 140.934 97.8819 145.562 95.7933 148.648C93.6908 151.733 92.0032 153.124 92.0032 153.124" stroke="black" stroke-width="1.15966" stroke-linecap="round" stroke-linejoin="round"/>
<path d="M103.484 142.174C103.484 142.174 101.99 145.507 100.137 147.904C98.2832 150.287 96.1669 152.229 96.1669 152.229" stroke="black" stroke-width="1.15966" stroke-linecap="round" stroke-linejoin="round"/>
<path d="M114.287 150.893C114.287 150.893 116.03 144.667 117.676 138.138C119.322 131.623 120.249 125.714 120.249 125.714" stroke="#6CA3B7" stroke-width="1.15966" stroke-linecap="round" stroke-linejoin="round"/>
<path fill-rule="evenodd" clip-rule="evenodd" d="M127.773 26.7447C127.773 26.7447 128.396 45.2988 129.751 52.3237C131.107 59.3486 134.385 64.0456 137.304 65.5333C140.222 67.0209 144.206 66.6903 144.206 66.6903L143.874 71.6766L141.398 72.3516C142.712 78.8117 147.443 81.1809 153.958 80.5197C161.081 79.7897 164.29 76.1119 165.743 73.2056L164.055 72.6959C163.723 69.5278 163.931 56.9518 164.014 52.7369C166.033 51.1391 170.487 47.2134 170.626 43.3841C170.805 38.4254 166.559 38.1636 166.559 38.1636C166.559 38.1636 170.805 18.3561 149.739 16.9925C128.672 15.6426 127.773 26.7447 127.773 26.7447Z" fill="white"/>
<path fill-rule="evenodd" clip-rule="evenodd" d="M159.533 39.5136C159.657 40.4915 159.754 41.3593 159.865 41.9929C160.321 44.5136 161.538 43.4255 162.036 41.6761C162.534 39.913 164.166 38.4805 166.559 38.1637C166.559 38.1637 170.806 38.4254 170.626 43.3841C170.446 48.3291 164.014 52.7369 164.014 52.7369C164.014 52.7369 164.042 56.4835 163.904 60.5332C168.136 57.3789 172.991 50.3815 175.564 39.1003C178.137 27.8329 176.104 22.9017 171.041 16.7721C165.978 10.6563 160.28 10.0227 151.413 10.3808C142.547 10.739 131.979 11.1935 131.979 11.1935C122.268 11.9787 117.704 10.0916 116.708 13.1081C115.726 16.1247 120.553 17.8741 120.553 17.8741C120.553 17.8741 114.91 19.224 114.951 22.2956C114.993 25.3535 123.14 25.4362 123.14 25.4362C123.14 25.4362 119.087 28.6594 120.581 30.2847C122.075 31.8963 127.94 31.0699 127.94 31.0699C127.94 31.0699 130.346 30.4914 134.621 29.5134C136.225 29.1553 138.162 28.5216 140.264 27.9018C140.098 28.5079 140.167 29.169 140.818 29.7889C142.602 31.4969 151.164 27.585 151.164 27.585C151.164 27.585 153.114 31.6071 157.624 29.9679C158.965 32.3096 159.45 35.6154 159.533 39.5136Z" fill="black" stroke="black" stroke-width="0.463865" stroke-linecap="round" stroke-linejoin="round"/>
<path d="M147.802 44.9407C148.574 44.9407 149.2 44.0589 149.2 42.971C149.2 41.8832 148.574 41.0013 147.802 41.0013C147.031 41.0013 146.405 41.8832 146.405 42.971C146.405 44.0589 147.031 44.9407 147.802 44.9407Z" fill="black"/>
<path d="M133.21 43.0675C133.981 43.0675 134.607 42.1856 134.607 41.0977C134.607 40.0099 133.981 39.128 133.21 39.128C132.438 39.128 131.813 40.0099 131.813 41.0977C131.813 42.1856 132.438 43.0675 133.21 43.0675Z" fill="black"/>
<path d="M139.144 41.4421C139.144 41.4421 137.525 49.3211 138.701 50.7674C139.877 52.2137 142.076 51.3046 142.076 51.3046" stroke="black" stroke-width="1.15966" stroke-linecap="round" stroke-linejoin="round"/>
<path d="M142.339 55.8362C142.339 55.8362 143.431 56.2356 145.008 55.3403C146.599 54.445 147.498 52.9987 147.498 52.9987" stroke="black" stroke-width="1.15966" stroke-linecap="round" stroke-linejoin="round"/>
<path d="M167.887 41.1807C164.664 42.3653 162.672 45.9741 162.962 49.28" stroke="black" stroke-width="1.15966" stroke-linecap="round" stroke-linejoin="round"/>
<path d="M166.947 45.6296L164.222 44.3761" stroke="black" stroke-width="1.15966" stroke-linecap="round" stroke-linejoin="round"/>
<path d="M146.323 37.1992C146.323 37.1992 147.277 36.9788 148.882 37.1854C150.487 37.392 151.33 37.943 151.33 37.943" stroke="black" stroke-width="1.15966" stroke-linecap="round" stroke-linejoin="round"/>
<path d="M131.08 36.2498C132.698 35.5886 134.552 35.8365 136.143 36.4564" stroke="black" stroke-width="1.15966" stroke-linecap="round" stroke-linejoin="round"/>
<path d="M156.586 59.886C156.586 59.886 154.995 62.751 151.496 64.5417C147.996 66.3324 144.206 66.6905 144.206 66.6905" stroke="black" stroke-width="1.15966" stroke-linecap="round" stroke-linejoin="round"/>
<path fill-rule="evenodd" clip-rule="evenodd" d="M190.572 38.5496C190.572 38.5496 190.572 37.1308 192.19 35.4641C193.822 33.7974 195.219 34.0454 195.219 34.0454L211.113 58.9218L209.176 60.5885L190.572 38.5496Z" fill="#EF8354"/>
<path fill-rule="evenodd" clip-rule="evenodd" d="M51.0599 120.961L90.4404 121.953C90.4404 121.953 94.9082 121.774 94.106 125.107C93.3037 128.441 73.3437 187.051 73.3437 187.051C73.3437 187.051 72.1542 189.847 69.4984 189.64C66.8564 189.447 31.0861 185.659 31.0861 185.659C31.0861 185.659 25.7331 185.508 27.5312 181.334C29.3294 177.161 46.8134 126.113 46.8134 126.113C46.8134 126.113 48.0168 120.383 51.0599 120.961Z" fill="#EF8354"/>
<path d="M62.1867 157.16C64.2911 155.907 65.1651 153.506 64.1388 151.796C63.1125 150.086 60.5745 149.715 58.4701 150.968C56.3657 152.22 55.4917 154.622 56.518 156.332C57.5443 158.042 60.0823 158.413 62.1867 157.16Z" fill="white"/>
<path fill-rule="evenodd" clip-rule="evenodd" d="M96.2914 120.08L95.9871 116.884C95.9871 116.884 92.446 114.763 89.6381 117.848C86.844 120.934 84.451 124.708 83.2476 126.058C82.0442 127.394 84.7 129.185 88.0889 127.105C91.4916 125.011 93.3313 122.683 93.3313 122.683L96.2914 120.08Z" fill="white"/>
<path fill-rule="evenodd" clip-rule="evenodd" d="M9.31389 166.045C9.31389 166.045 49.2891 165.948 56.7862 171.72C64.2833 177.491 75.4736 217.492 75.4736 217.492L96.8583 216.693C96.8583 216.693 93.2619 256.308 84.6583 260.881C77.6176 264.628 45.5683 267.52 28.6929 261.46C17.3919 256.281 11.61 240.509 8.78827 229.021C5.96648 217.52 7.39121 214.599 7.39121 214.599L10.6695 205.756C10.6695 205.756 4.27895 176.389 5.06739 172.119C5.86966 167.836 9.31389 166.045 9.31389 166.045Z" fill="black"/>
<path fill-rule="evenodd" clip-rule="evenodd" d="M10.6695 205.756C10.6695 205.756 4.27895 176.389 5.06739 172.119C5.15038 171.679 5.26104 171.265 5.39936 170.894C16.7695 169.323 47.8921 171.844 51.5577 176.431C55.8042 181.761 60.7008 209.365 60.7008 209.365C60.7008 209.365 53.4527 209.572 40.1184 208.621C26.7702 207.685 10.6695 205.756 10.6695 205.756Z" fill="black"/>
<path fill-rule="evenodd" clip-rule="evenodd" d="M96.1251 223.195C94.6865 234.628 91.0625 257.465 84.6581 260.881C82.9568 261.79 79.7615 262.644 75.681 263.347C74.7819 262.438 73.8551 261.212 73.039 259.573C70.3417 254.104 69.3458 228.718 69.3458 228.718L96.1251 223.195Z" fill="black"/>
<path fill-rule="evenodd" clip-rule="evenodd" d="M65.6389 264.545C53.4526 265.482 38.5138 264.986 28.6929 261.46C17.3919 256.28 11.61 240.509 8.78821 229.021C7.07301 222.037 6.92086 218.222 7.07301 216.293C11.7207 216.349 24.3772 216.693 38.6106 218.759C56.5511 221.362 57.3533 225.44 59.9538 233.993C61.7797 240.027 64.2971 255.743 65.6389 264.545Z" fill="black"/>
<path fill-rule="evenodd" clip-rule="evenodd" d="M49.5383 63.4398L50.6449 61.9797C50.6449 61.9797 50.7279 57.4204 51.6962 54.1834C52.6644 50.9603 56.5236 51.2771 56.0948 53.1917C55.666 55.1063 55.6522 60.7676 55.6522 60.7676C53.7987 61.5665 51.7238 62.4756 49.5383 63.4398Z" fill="white"/>
<path fill-rule="evenodd" clip-rule="evenodd" d="M226.577 175.976C226.577 175.976 224.226 174.929 223.022 177.119C221.833 179.309 210.877 198.813 210.877 198.813L203.934 210.398C203.934 210.398 201.859 213.07 204.183 214.654C206.506 216.252 221.044 223.015 221.044 223.015C221.044 223.015 224.101 225.205 226.397 221.431C228.693 217.643 245.334 188.138 245.334 188.138C245.334 188.138 247.45 184.832 244.628 183.538C241.806 182.243 226.577 175.976 226.577 175.976Z" fill="white" stroke="#EF8354" stroke-width="1.15966" stroke-linecap="round" stroke-linejoin="round"/>
<path fill-rule="evenodd" clip-rule="evenodd" d="M239.704 181.431C236.993 180.287 233.729 178.938 231.142 177.863L230.699 180.081L237.837 183.015L239.704 181.431Z" fill="#EF8354" stroke="#EF8354" stroke-width="1.15966" stroke-linecap="round" stroke-linejoin="round"/>
<path d="M194.57 34.2657C194.57 34.2657 195.967 31.6623 197.972 32.3097C199.079 32.6679 199.425 34.4448 199.798 36.4145C200.116 38.0674 200.476 39.8718 201.237 40.8223C202.163 41.9655 202.177 40.3126 202.177 40.3126L203.118 40.3264C203.118 40.3402 203.09 44.5964 200.504 41.4146C199.591 40.2713 199.217 38.3429 198.871 36.5798C198.553 34.8993 198.249 33.3841 197.682 33.2051C196.437 32.8056 195.4 34.7202 195.386 34.7202L194.57 34.2657Z" fill="black"/>
<path d="M162.41 139.984L158.91 138.331" stroke="black" stroke-width="1.15966" stroke-linecap="round" stroke-linejoin="round"/>
<path d="M162.742 137.849C161.538 137.808 160.127 137.808 158.91 138.331" stroke="black" stroke-width="1.15966" stroke-linecap="round" stroke-linejoin="round"/>
<path d="M95.9871 116.884C95.9871 116.884 92.4461 114.763 89.6381 117.848C86.844 120.934 84.451 124.708 83.2476 126.058C82.0442 127.394 84.7 129.185 88.0889 127.105C91.4916 125.011 93.3313 122.683 93.3313 122.683" stroke="black" stroke-width="1.15966" stroke-linecap="round" stroke-linejoin="round"/>
<path d="M49.5383 63.4398L50.6449 61.9797C50.6449 61.9797 50.7279 57.4204 51.6962 54.1834C52.6644 50.9603 56.5236 51.2771 56.0948 53.1917C55.666 55.1063 55.6522 60.7676 55.6522 60.7676" stroke="black" stroke-width="1.15966" stroke-linecap="round" stroke-linejoin="round"/>
<path d="M87.8259 162.257C95.5167 166.141 93.1237 171.61 90.7307 178.772C88.7803 184.599 79.6649 208.47 76.276 217.368" stroke="white" stroke-width="1.15966" stroke-linecap="round" stroke-linejoin="round"/>
<path d="M56.5649 171.733C64.0482 177.505 75.2385 217.505 75.2385 217.505L79.6648 217.34" stroke="white" stroke-width="1.15966" stroke-linecap="round" stroke-linejoin="round"/>
<path d="M75.681 263.347C74.7819 262.438 73.8551 261.212 73.039 259.573C70.3417 254.104 69.3458 228.718 69.3458 228.718L96.1251 223.195" stroke="white" stroke-width="1.15966" stroke-linecap="round" stroke-linejoin="round"/>
<path d="M7.07298 216.293C11.7206 216.349 24.3772 216.693 38.6106 218.759C56.551 221.362 57.3533 225.44 59.9538 233.993C61.7796 240.027 64.2971 255.743 65.6388 264.545" stroke="white" stroke-width="1.15966" stroke-linecap="round" stroke-linejoin="round"/>
<path d="M5.3994 170.894C16.7695 169.323 47.8921 171.844 51.5577 176.431C55.8042 181.761 60.7008 209.365 60.7008 209.365C60.7008 209.365 53.4527 209.572 40.1184 208.621C26.7702 207.685 10.6695 205.756 10.6695 205.756" stroke="white" stroke-width="1.15966" stroke-linecap="round" stroke-linejoin="round"/>
<path d="M94.1058 125.108C93.3035 128.441 73.3436 187.051 73.3436 187.051C73.3436 187.051 72.154 189.847 69.4982 189.64" stroke="white" stroke-width="1.15966" stroke-linecap="round" stroke-linejoin="round"/>
<path d="M87.9916 117.036L86.3179 114.749" stroke="black" stroke-width="1.15966" stroke-linecap="round" stroke-linejoin="round"/>
<path d="M44.738 82.6962L46.6607 87.4346" stroke="#6CA3B7" stroke-width="1.15966" stroke-linecap="round" stroke-linejoin="round"/>
<path d="M47.7128 80.3134L49.7323 85.038" stroke="#6CA3B7" stroke-width="1.15966" stroke-linecap="round" stroke-linejoin="round"/>
<path d="M50.6587 78.2607L52.8995 82.6272" stroke="#6CA3B7" stroke-width="1.15966" stroke-linecap="round" stroke-linejoin="round"/>
<path d="M53.7845 76.2089L55.9285 80.4238" stroke="#6CA3B7" stroke-width="1.15966" stroke-linecap="round" stroke-linejoin="round"/>
<path d="M56.6894 74.3491L58.9717 78.3161" stroke="#6CA3B7" stroke-width="1.15966" stroke-linecap="round" stroke-linejoin="round"/>
<path d="M110.622 144.584L115.435 146.691" stroke="#6CA3B7" stroke-width="1.15966" stroke-linecap="round" stroke-linejoin="round"/>
<path d="M111.562 140.205L116.583 142.367" stroke="#6CA3B7" stroke-width="1.15966" stroke-linecap="round" stroke-linejoin="round"/>
<path d="M112.364 136.513L117.676 138.138" stroke="#6CA3B7" stroke-width="1.15966" stroke-linecap="round" stroke-linejoin="round"/>
<path d="M113.194 132.628L118.603 134.212" stroke="#6CA3B7" stroke-width="1.15966" stroke-linecap="round" stroke-linejoin="round"/>
<path d="M113.982 128.951L119.377 130.576" stroke="#6CA3B7" stroke-width="1.15966" stroke-linecap="round" stroke-linejoin="round"/>
<path d="M114.619 125.976L119.93 127.601" stroke="#6CA3B7" stroke-width="1.15966" stroke-linecap="round" stroke-linejoin="round"/>
<path d="M195.219 127.986C195.219 127.986 187.791 158.441 167.804 165.7C147.816 172.959 109.86 148.179 109.86 148.179L115.047 124.019L158.91 138.331L176.2 100.617" stroke="black" stroke-width="1.15966" stroke-linecap="round" stroke-linejoin="round"/>
<path d="M5.27496 23.3567L23.5612 74.2942L49.4276 63.4813" stroke="black" stroke-width="1.15966" stroke-linecap="round" stroke-linejoin="round"/>
<path d="M126.999 22.6124C129.336 20.8493 132.933 18.8933 137.885 17.6812" stroke="white" stroke-width="1.15966" stroke-linecap="round" stroke-linejoin="round"/>
<path d="M127.096 16.0012C129.876 15.1885 131.646 14.7064 135.091 14.3759" stroke="white" stroke-width="1.15966" stroke-linecap="round" stroke-linejoin="round"/>
<path d="M136.432 23.3284C137.801 22.2678 139.641 21.1521 141.951 20.1603" stroke="white" stroke-width="1.15966" stroke-linecap="round" stroke-linejoin="round"/>
<path d="M202.426 49.8439L204.501 52.6401M194.224 38.7831L200.504 47.2681L194.224 38.7831Z" stroke="white" stroke-width="1.15966" stroke-linecap="round" stroke-linejoin="round"/>
<path d="M101.243 270.798C95.9728 272.961 92.1412 270.054 92.1412 270.054C92.1412 270.054 89.5131 267.864 87.8394 263.98C86.1657 260.082 85.7092 258.828 85.7092 258.828" stroke="black" stroke-width="1.15966" stroke-linecap="round" stroke-linejoin="round"/>
<path d="M61.8072 271.887C57.0351 272.865 53.2589 269.587 53.2589 269.587C53.2589 269.587 51.4607 268.347 50.4095 266.598C49.3582 264.848 49.1646 264.504 49.1646 264.504" stroke="black" stroke-width="1.15966" stroke-linecap="round" stroke-linejoin="round"/>
<path d="M102.073 209.737C101.52 207.726 100.261 202.575 99.0298 201.046" stroke="black" stroke-width="1.15966" stroke-linecap="round" stroke-linejoin="round"/>
<path d="M103.456 205.15C102.903 203.153 101.603 198.883 100.413 196.472" stroke="black" stroke-width="1.15966" stroke-linecap="round" stroke-linejoin="round"/>
<path d="M104.494 199.861C103.927 197.864 102.571 193.428 101.437 191.183" stroke="black" stroke-width="1.15966" stroke-linecap="round" stroke-linejoin="round"/>
<path d="M106.001 194.833C105.448 192.836 103.373 186.541 102.156 184.048" stroke="black" stroke-width="1.15966" stroke-linecap="round" stroke-linejoin="round"/>
<path d="M46.3983 4.62353L45.928 2.81909L44.4894 3.5078L44.0468 1.97885L42.6082 2.80531L42.1103 1.40033L39.9109 2.70889L5.27496 23.3566" stroke="black" stroke-width="1.15966" stroke-linecap="round" stroke-linejoin="round"/>
<path d="M165.425 36.0701C165.674 34.8028 165.881 33.3427 165.978 31.8689C166.02 31.1664 166.033 30.4639 166.006 29.7614" stroke="white" stroke-width="1.15966" stroke-linecap="round" stroke-linejoin="round"/>
<path d="M168.8 34.376C169.133 32.4889 169.396 30.2162 169.257 28.0536" stroke="white" stroke-width="1.15966" stroke-linecap="round" stroke-linejoin="round"/>
<path d="M171.166 36.5383C171.65 34.6926 172.106 32.4474 172.148 30.2848" stroke="white" stroke-width="1.15966" stroke-linecap="round" stroke-linejoin="round"/>
<path d="M47.2002 242.837C47.2002 242.837 44.6965 231.693 31.708 228.208C18.7195 224.723 11.7619 227.093 8.56667 228.112" stroke="white" stroke-width="1.15966" stroke-linecap="round" stroke-linejoin="round"/>
</g>
<defs>
<filter id="filter0_d_10_645" x="0.694977" y="0.174194" width="250.885" height="283.406" filterUnits="userSpaceOnUse" color-interpolation-filters="sRGB">
<feFlood flood-opacity="0" result="BackgroundImageFix"/>
<feColorMatrix in="SourceAlpha" type="matrix" values="0 0 0 0 0 0 0 0 0 0 0 0 0 0 0 0 0 0 127 0" result="hardAlpha"/>
<feOffset dy="4"/>
<feGaussianBlur stdDeviation="2"/>
<feComposite in2="hardAlpha" operator="out"/>
<feColorMatrix type="matrix" values="0 0 0 0 0 0 0 0 0 0 0 0 0 0 0 0 0 0 0.25 0"/>
<feBlend mode="normal" in2="BackgroundImageFix" result="effect1_dropShadow_10_645"/>
<feBlend mode="normal" in="SourceGraphic" in2="effect1_dropShadow_10_645" result="shape"/>
</filter>
</defs>
</svg>
