<svg width="291" height="275" viewBox="0 0 291 275" fill="none" xmlns="http://www.w3.org/2000/svg">
<path fill-rule="evenodd" clip-rule="evenodd" d="M234.077 64.1102L278.773 52.4581L253.248 93.5322L234.077 64.1102ZM243.111 67.1831L253.206 81.8802L266.862 60.5367L243.111 67.1831Z" fill="#D7F0F7"/>
<path d="M258.191 80.5591L260.09 82.5196" stroke="#6CA3B7" stroke-width="1.1669" stroke-linecap="round" stroke-linejoin="round"/>
<path d="M262.673 75.4844L263.818 76.5267" stroke="#6CA3B7" stroke-width="1.1669" stroke-linecap="round" stroke-linejoin="round"/>
<path d="M265.382 68.9764L267.281 70.9369" stroke="#6CA3B7" stroke-width="1.1669" stroke-linecap="round" stroke-linejoin="round"/>
<path d="M269.642 64.2635L270.786 65.3063" stroke="#6CA3B7" stroke-width="1.1669" stroke-linecap="round" stroke-linejoin="round"/>
<path d="M272.503 57.5198L274.402 59.4803" stroke="#6CA3B7" stroke-width="1.1669" stroke-linecap="round" stroke-linejoin="round"/>
<path fill-rule="evenodd" clip-rule="evenodd" d="M225.252 0.914391C225.252 0.914391 241.798 -3.6046 248.054 7.44954C254.309 18.5037 248.864 30.3504 233.434 27.8337C230.893 27.4304 228.617 26.8325 226.607 26.0956L218.494 29.8498L220.184 22.689C210.94 15.6532 213.384 4.33492 225.252 0.914391Z" fill="#EF8354"/>
<path fill-rule="evenodd" clip-rule="evenodd" d="M242.511 19.9777L235.501 4.84948C235.501 4.84948 234.831 3.12531 233.63 4.12644C232.429 5.12757 223.339 18.7402 223.339 18.7402C223.339 18.7402 221.915 20.5756 224.847 21.1317C227.78 21.6879 241.687 21.9382 241.687 21.9382C241.687 21.9382 243.572 22.3971 242.511 19.9777Z" fill="white"/>
<path fill-rule="evenodd" clip-rule="evenodd" d="M235.376 8.74248L232.639 8.57562L232.667 15.3054L234.482 15.4167L235.376 8.74248ZM233.337 19.0458C233.742 19.0736 234.091 18.9623 234.37 18.726C234.663 18.4757 234.817 18.1698 234.831 17.7944C234.859 17.4328 234.747 17.113 234.496 16.8488C234.245 16.5847 233.923 16.4317 233.504 16.4039C233.1 16.3761 232.75 16.4873 232.471 16.7098C232.192 16.9462 232.038 17.2521 232.01 17.6275C231.983 17.989 232.094 18.3227 232.36 18.5869C232.611 18.865 232.932 19.018 233.337 19.0458Z" fill="#EF8354"/>
<path fill-rule="evenodd" clip-rule="evenodd" d="M269.278 129.407C273.677 129.379 283.548 128.684 287.695 123.066C293.085 115.738 287.542 107.702 276.092 107.396C249.451 106.701 249.325 127.057 263.986 129.17L266.402 134.426L269.278 129.407Z" fill="white" stroke="black" stroke-width="1.1669" stroke-linecap="round" stroke-linejoin="round"/>
<path fill-rule="evenodd" clip-rule="evenodd" d="M264.978 118.311C265.746 118.311 266.36 118.95 266.36 119.729C266.36 120.508 265.746 121.147 264.978 121.147C264.21 121.147 263.582 120.508 263.582 119.729C263.582 118.95 264.21 118.311 264.978 118.311ZM279.695 116.128C280.463 116.128 281.077 116.767 281.077 117.546C281.077 118.325 280.463 118.964 279.695 118.964C278.927 118.964 278.299 118.325 278.299 117.546C278.299 116.767 278.927 116.128 279.695 116.128ZM272.183 117.351C272.951 117.351 273.579 117.977 273.579 118.77C273.579 119.548 272.951 120.174 272.183 120.174C271.415 120.174 270.8 119.548 270.8 118.77C270.8 117.977 271.415 117.351 272.183 117.351Z" fill="black"/>
<path fill-rule="evenodd" clip-rule="evenodd" d="M91.361 79.6558C96.7508 72.3281 91.2074 64.2913 79.7577 63.9854C62.0945 63.5265 56.0904 72.3142 58.3244 78.905L55.3224 84.3278L61.5499 83.3127C63.1277 84.5224 65.1803 85.4123 67.6657 85.7599C75.2337 86.0798 86.46 86.3022 91.361 79.6558Z" fill="white" stroke="black" stroke-width="1.1669" stroke-linecap="round" stroke-linejoin="round"/>
<path fill-rule="evenodd" clip-rule="evenodd" d="M68.6436 74.9007C69.4115 74.9007 70.0259 75.5403 70.0259 76.3189C70.0259 77.0976 69.4115 77.7233 68.6436 77.7233C67.8756 77.7233 67.2473 77.0976 67.2473 76.3189C67.2473 75.5403 67.8756 74.9007 68.6436 74.9007ZM83.3606 72.7177C84.1286 72.7177 84.743 73.3573 84.743 74.1359C84.743 74.9146 84.1286 75.5542 83.3606 75.5542C82.5927 75.5542 81.9643 74.9146 81.9643 74.1359C81.9643 73.3573 82.5927 72.7177 83.3606 72.7177ZM75.8625 73.9413C76.6304 73.9413 77.2448 74.567 77.2448 75.3595C77.2448 76.1382 76.6304 76.7639 75.8625 76.7639C75.0945 76.7639 74.4662 76.1382 74.4662 75.3595C74.4662 74.567 75.0945 73.9413 75.8625 73.9413Z" fill="black"/>
<path fill-rule="evenodd" clip-rule="evenodd" d="M78.8783 10.4804L76.3649 38.9013L100.228 34.6326L102.49 6.05872L78.8783 10.4804Z" fill="#EF8354"/>
<path fill-rule="evenodd" clip-rule="evenodd" d="M80.7772 12.6358L80.0651 20.2833L99.5296 16.7933L100.144 9.00671L80.7772 12.6358Z" fill="white"/>
<path d="M82.914 21.7571L82.6627 24.6492L79.7583 24.9968" stroke="black" stroke-width="1.1669" stroke-linecap="round" stroke-linejoin="round"/>
<path d="M87.9264 21.1033L87.6751 23.9815L84.7708 24.3291" stroke="black" stroke-width="1.1669" stroke-linecap="round" stroke-linejoin="round"/>
<path d="M93.0506 20.0471L92.7992 22.9393L89.895 23.2869" stroke="black" stroke-width="1.1669" stroke-linecap="round" stroke-linejoin="round"/>
<path d="M98.0495 19.004L97.7981 21.8961L94.8938 22.2437" stroke="black" stroke-width="1.1669" stroke-linecap="round" stroke-linejoin="round"/>
<path d="M82.6624 26.6518L82.4111 29.53L79.5068 29.8915" stroke="black" stroke-width="1.1669" stroke-linecap="round" stroke-linejoin="round"/>
<path d="M87.6749 25.984L87.4236 28.8762L84.5193 29.2238" stroke="black" stroke-width="1.1669" stroke-linecap="round" stroke-linejoin="round"/>
<path d="M92.799 24.9413L92.5477 27.8195L89.6434 28.1671" stroke="black" stroke-width="1.1669" stroke-linecap="round" stroke-linejoin="round"/>
<path d="M97.7979 23.8982L97.5466 26.7903L94.6423 27.138" stroke="black" stroke-width="1.1669" stroke-linecap="round" stroke-linejoin="round"/>
<path d="M82.3974 31.4209L82.146 34.313L79.2417 34.6607" stroke="black" stroke-width="1.1669" stroke-linecap="round" stroke-linejoin="round"/>
<path d="M87.3962 30.767L87.1449 33.6453L84.2406 34.0068" stroke="black" stroke-width="1.1669" stroke-linecap="round" stroke-linejoin="round"/>
<path d="M92.5204 29.71L92.2691 32.6021L89.3647 32.9497" stroke="black" stroke-width="1.1669" stroke-linecap="round" stroke-linejoin="round"/>
<path d="M97.5189 28.6813L97.2675 31.5596L94.3772 31.9211" stroke="black" stroke-width="1.1669" stroke-linecap="round" stroke-linejoin="round"/>
<path fill-rule="evenodd" clip-rule="evenodd" d="M154.544 70.2832L147.94 77.2077C147.94 77.2077 134.34 61.2453 132.678 58.4783C131.016 55.7112 130.458 54.6128 130.458 54.6128C130.458 54.6128 130.262 48.2306 130.807 45.8251C131.365 43.4057 133.209 40.3467 132.776 39.4846C132.343 38.6364 130.709 38.1637 129.271 40.1381C127.833 42.1265 126.45 44.8101 126.45 44.8101C126.45 44.8101 119.539 36.3839 117.542 35.4245C115.559 34.4651 114.345 35.3967 114.345 35.3967C114.345 35.3967 113.088 33.9645 111.287 35.0908C109.499 36.2309 111.971 38.0385 113.842 41.1532C115.699 44.2678 116.942 47.0765 116.942 47.0765C116.942 47.0765 110.365 40.3884 108.815 39.9156C107.279 39.4429 105.967 40.6665 107.656 42.6548C109.346 44.6432 110.365 45.7695 111.692 47.4519C113.032 49.1344 113.66 50.4692 113.66 50.4692C113.66 50.4692 109.248 48.2028 106.721 48.0081C104.207 47.7995 105.059 50.2328 106.246 50.5944C107.433 50.942 113.06 54.1817 115.573 56.1423C118.101 58.1028 119.469 59.6601 119.469 59.6601L137.062 88.5399C138.682 91.1818 143.122 95.673 150.83 92.0439C158.552 88.4287 168.34 80.7951 168.34 80.7951L154.544 70.2832Z" fill="white" stroke="black" stroke-width="1.1669" stroke-linecap="round" stroke-linejoin="round"/>
<path fill-rule="evenodd" clip-rule="evenodd" d="M135.387 228.073C135.387 228.073 133.823 243.423 131.561 250.556C129.313 257.689 126.465 265.712 135.094 264.725C143.737 263.752 147.954 253.977 149.825 247.817C151.682 241.657 152.576 237.653 152.576 237.653L151.487 225.723L135.387 228.073Z" fill="white" stroke="black" stroke-width="1.1669" stroke-linecap="round" stroke-linejoin="round"/>
<path fill-rule="evenodd" clip-rule="evenodd" d="M151.542 227.905C151.542 227.905 150.816 237.179 149.154 245.953C147.493 254.727 143.15 266.949 151.821 266.282C160.506 265.614 165.463 253.267 166.999 244.91C168.521 236.554 168.898 233.411 168.898 233.411L168.144 223.066L151.542 227.905Z" fill="white" stroke="black" stroke-width="1.1669" stroke-linecap="round" stroke-linejoin="round"/>
<path fill-rule="evenodd" clip-rule="evenodd" d="M210.717 115.82C211.625 115.626 212.937 125.86 212.128 135.509C211.318 145.159 203.959 152.987 196.182 158.911C188.418 164.834 171.774 170.771 171.774 170.771C171.244 188.945 169.708 207.493 169.456 225.514C167.851 233.064 153.692 235.33 150.536 228.823C150.536 228.823 146.054 232.188 140.302 232.285C134.549 232.396 133.083 229.782 133.083 229.782C131.407 215.836 119.189 158.8 128.824 146.939C139.855 133.396 158.23 124.692 170.811 119.477L210.717 115.82Z" fill="#D7F0F7"/>
<path d="M153.385 146.091C152.226 146.786 143.248 152.473 144.407 166.684C145.566 180.908 150.327 226.487 150.411 227.224" stroke="black" stroke-width="1.1669" stroke-linecap="round" stroke-linejoin="round"/>
<path fill-rule="evenodd" clip-rule="evenodd" d="M195.903 57.3105L206.221 53.4172C206.221 53.4172 217.043 55.8088 220.827 64.7912C224.597 73.7874 225.77 79.3632 225.77 79.3632L211.89 86.093C211.89 86.093 207.408 99.0938 209.419 107.436C211.443 115.779 212.393 116.127 211.29 118.338C210.173 120.549 204.937 126.166 189.396 128.182C173.869 130.184 167.306 122.759 166.804 121.647C166.301 120.549 169.066 108.535 168.968 103.321C168.87 98.0926 168.158 93.1704 168.158 93.1704C168.158 93.1704 164.583 90.6676 163.425 88.3038C162.266 85.94 163.871 80.5729 163.871 80.5729L152.212 71.3402C152.212 71.3402 157.267 64.3462 160.492 61.0787C163.718 57.8111 167.376 55.0997 172.989 54.0151C172.989 54.0151 173.827 53.9456 175.279 53.8483C182.275 53.8761 195.903 57.3105 195.903 57.3105Z" fill="black" stroke="black" stroke-width="0.466762" stroke-linecap="round" stroke-linejoin="round"/>
<path d="M150.942 80.6565L147.94 77.2081" stroke="black" stroke-width="1.1669" stroke-linecap="round" stroke-linejoin="round"/>
<path d="M121.438 51.9018C121.438 51.9018 124.007 49.4824 124.943 47.8556C125.878 46.2148 126.451 44.8105 126.451 44.8105" stroke="black" stroke-width="1.1669" stroke-linecap="round" stroke-linejoin="round"/>
<path d="M120.963 44.9215C119.427 42.3908 116.844 38.3029 114.345 35.3969" stroke="black" stroke-width="1.1669" stroke-linecap="round" stroke-linejoin="round"/>
<path d="M167.711 66.1816C167.711 66.1816 167.278 70.5754 166.58 73.2868C166.161 74.858 165.407 76.8047 164.835 78.1812" stroke="white" stroke-width="1.1669" stroke-linecap="round" stroke-linejoin="round"/>
<path fill-rule="evenodd" clip-rule="evenodd" d="M121.382 103.029L119.706 104.614L130.975 141.336L183.182 148.844L208.902 128.655L177.723 125.499L172.92 109.828L121.382 103.029Z" fill="#EF8354"/>
<path d="M121.41 104.836L171.342 111.469L182.54 147.12" stroke="white" stroke-width="1.1669" stroke-linecap="round" stroke-linejoin="round"/>
<path fill-rule="evenodd" clip-rule="evenodd" d="M166.483 27.2487C167.181 30.9612 167.907 34.1454 168.745 36.7734C169.415 38.6644 170.49 40.9586 172.082 42.9331C175.489 47.1323 180.599 46.8959 180.599 46.8959L180.907 51.9154L172.989 54.015C172.989 54.015 168.088 71.6043 183.727 70.7978C199.366 69.9914 206.222 53.4171 206.222 53.4171L194.618 50.9143C194.618 50.9143 193.459 42.7662 193.362 40.0131C193.264 37.2461 193.459 35.3412 193.459 35.3412C193.459 35.3412 196.489 34.9658 197.299 31.2393C198.095 27.5268 196.824 25.5524 196.266 24.9128C203.694 0.134809 160.576 -4.23123 166.483 27.2487Z" fill="white"/>
<path fill-rule="evenodd" clip-rule="evenodd" d="M180.599 46.896C180.599 46.896 175.488 47.1323 172.081 42.9332C170.49 40.9587 169.414 38.6644 168.744 36.7734C167.906 34.1455 167.18 30.9613 166.482 27.2488C166.161 25.5663 165.994 23.9951 165.952 22.5212C166.105 22.1597 168.968 15.5829 175.279 13.0105C175.279 13.0105 175.167 18.4889 180.11 21.4089C185.053 24.3149 189.34 24.1203 189.34 24.1203C189.34 24.1203 189.27 26.6787 189.577 28.3055C189.87 29.9463 190.778 30.7667 190.932 30.6415C191.085 30.5164 190.457 26.345 192.9 24.9963C195.344 23.6336 196.265 24.9128 196.265 24.9128C196.824 25.5524 198.095 27.5269 197.299 31.2394C196.489 34.9658 193.459 35.3413 193.459 35.3413C193.459 35.3413 193.263 37.2462 193.361 40.0132C193.445 42.2796 194.241 48.1891 194.52 50.2191C203.051 47.8832 207.45 43.1417 207.45 43.1417C207.24 30.9613 202.465 -5.14885 183.475 3.11046C183.475 3.11046 177.22 -1.60319 170.755 3.86131C164.304 9.33971 161.623 19.49 160.422 30.7806C159.207 42.085 156.834 48.9121 156.834 48.9121C156.834 48.9121 158.733 49.7742 160.297 47.9666C161.86 46.159 164.122 40.8753 164.122 40.8753C164.122 40.8753 163.271 49.4683 164.779 50.5807C165.812 51.3315 173.073 52.0824 180.906 51.8738L180.599 46.896Z" fill="#EF8354"/>
<path d="M193.18 32.7552C193.18 32.7552 192.649 31.0727 193.319 28.6116C194.003 26.1505 195.539 26.5955 195.539 26.5955" stroke="black" stroke-width="1.1669" stroke-linecap="round" stroke-linejoin="round"/>
<path d="M195.331 30.5582L193.236 28.9592" stroke="black" stroke-width="1.1669" stroke-linecap="round" stroke-linejoin="round"/>
<path fill-rule="evenodd" clip-rule="evenodd" d="M169.652 27.9579C170.238 27.7493 170.895 28.1247 171.118 28.7783C171.356 29.4457 171.076 30.1409 170.49 30.3495C169.903 30.5441 169.247 30.1687 169.024 29.5152C168.786 28.8478 169.066 28.1526 169.652 27.9579ZM179.999 28.4446C180.585 28.236 181.241 28.6114 181.479 29.2788C181.702 29.9323 181.423 30.6276 180.85 30.8361C180.264 31.0308 179.608 30.6693 179.37 30.0019C179.147 29.3483 179.426 28.6392 179.999 28.4446Z" fill="black"/>
<path d="M174.539 28.1942C174.539 28.1942 174.316 31.9345 174.092 33.5752C173.869 35.2021 173.562 36.2866 173.562 36.2866C174.469 36.523 175.6 36.523 176.564 36.231" stroke="black" stroke-width="1.1669" stroke-linecap="round" stroke-linejoin="round"/>
<path d="M170.588 33.1018C172.837 32.0347 173.724 29.1778 172.568 26.7208C171.412 24.2638 168.652 23.137 166.402 24.2041C164.153 25.2711 163.266 28.128 164.422 30.585C165.578 33.0421 168.338 34.1688 170.588 33.1018Z" stroke="black" stroke-width="1.58139" stroke-linecap="round" stroke-linejoin="round"/>
<path d="M183.106 33.0887C185.355 32.0217 186.242 29.1648 185.086 26.7078C183.93 24.2508 181.169 23.124 178.92 24.1911C176.671 25.2581 175.784 28.115 176.94 30.572C178.096 33.029 180.856 34.1558 183.106 33.0887Z" stroke="black" stroke-width="1.58139" stroke-linecap="round" stroke-linejoin="round"/>
<path d="M191.714 26.192L185.556 28.3194" stroke="black" stroke-width="1.1669" stroke-linecap="round" stroke-linejoin="round"/>
<path d="M173.073 28.6671L176.452 28.7509" stroke="black" stroke-width="1.1669" stroke-linecap="round" stroke-linejoin="round"/>
<path d="M190.108 40.8338C188.432 44.004 185.444 45.9507 181.939 46.7015" stroke="black" stroke-width="1.1669" stroke-linecap="round" stroke-linejoin="round"/>
<path d="M179.426 42.0162C180.14 41.7791 180.512 40.8924 180.257 40.0356C180.003 39.1788 179.218 38.6765 178.504 38.9136C177.79 39.1506 177.418 40.0374 177.673 40.8942C177.927 41.7509 178.712 42.2533 179.426 42.0162Z" fill="black" stroke="black" stroke-width="1.43924" stroke-linecap="round" stroke-linejoin="round"/>
<path d="M176.396 38.9849L178.672 38.8731" stroke="black" stroke-width="1.1669" stroke-linecap="round" stroke-linejoin="round"/>
<path d="M206.236 77.2634L209.112 86.204" stroke="white" stroke-width="1.1669" stroke-linecap="round" stroke-linejoin="round"/>
<path fill-rule="evenodd" clip-rule="evenodd" d="M210.83 86.4959L214.237 100.595L197.286 120.479C197.286 120.479 186.492 124.442 185.026 125.86C183.574 127.264 180.697 130.254 180.334 130.685C179.985 131.116 180.739 131.839 181.396 131.964C182.052 132.089 182.582 131.964 182.582 131.964C182.582 131.964 180.46 135.607 180.823 136.455C181.172 137.317 182.862 136.538 182.862 136.538C182.862 136.538 183.015 137.943 183.839 137.998C184.677 138.04 185.934 136.886 185.934 136.886C185.934 136.886 186.185 138.04 187.581 137.818C188.964 137.595 189.662 136.205 189.662 136.205C189.662 136.205 190.555 138.249 192.594 136.191C197.439 131.296 195.959 133.577 200.986 129.6C203.415 127.695 204.826 125.943 204.826 125.943C204.826 125.943 227.613 113.387 228.27 103.084C228.926 92.7947 224.723 79.8635 224.723 79.8635L210.83 86.4959Z" fill="white" stroke="black" stroke-width="1.1669" stroke-linecap="round" stroke-linejoin="round"/>
<path d="M194.451 130.254C193.585 130.851 191.211 133.146 189.661 136.205" stroke="black" stroke-width="1.1669" stroke-linecap="round" stroke-linejoin="round"/>
<path d="M191.462 129.545C189.661 131.033 186.952 134.258 185.933 136.886" stroke="black" stroke-width="1.1669" stroke-linecap="round" stroke-linejoin="round"/>
<path d="M188.935 129.142C185.919 131.672 184.313 133.605 182.861 136.539" stroke="black" stroke-width="1.1669" stroke-linecap="round" stroke-linejoin="round"/>
<path d="M186.519 128.071C185.193 129.114 183.489 130.574 182.582 131.964" stroke="black" stroke-width="1.1669" stroke-linecap="round" stroke-linejoin="round"/>
<path d="M182.694 3.76385C182.694 3.76385 180.753 4.5008 178.784 6.44744C176.815 8.40798 175.81 10.7022 175.81 10.7022" stroke="white" stroke-width="1.1669" stroke-linecap="round" stroke-linejoin="round"/>
<path d="M180.557 11.8563C180.557 11.8563 181.758 17.279 187.455 19.3369C193.166 21.3948 195.177 20.8386 195.177 20.8386" stroke="white" stroke-width="1.1669" stroke-linecap="round" stroke-linejoin="round"/>
<path d="M187.203 13.2054C187.203 13.2054 188.111 15.8194 191.49 16.7789C194.869 17.7244 196.335 17.8356 196.335 17.8356" stroke="white" stroke-width="1.1669" stroke-linecap="round" stroke-linejoin="round"/>
<path d="M194.171 13.8583C194.171 13.8583 196.084 14.1642 197.592 15.4713C199.114 16.7783 199.673 17.4318 199.673 17.4318" stroke="white" stroke-width="1.1669" stroke-linecap="round" stroke-linejoin="round"/>
<path d="M201.935 33.951C201.935 33.951 202.535 36.8153 202.535 39.3321C202.535 41.8349 202.535 41.8349 202.535 41.8349V41.5846" stroke="white" stroke-width="1.1669" stroke-linecap="round" stroke-linejoin="round"/>
<path d="M199.212 36.2172C199.212 36.2172 199.422 38.1639 199.617 39.4292C199.813 40.6806 199.813 40.7779 199.813 40.7779" stroke="white" stroke-width="1.1669" stroke-linecap="round" stroke-linejoin="round"/>
<path d="M168.605 44.2543L168.549 47.2159" stroke="white" stroke-width="1.1669" stroke-linecap="round" stroke-linejoin="round"/>
<path d="M217.266 100.596H214.236" stroke="black" stroke-width="1.1669" stroke-linecap="round" stroke-linejoin="round"/>
<path d="M180.766 49.204L180.962 51.9849L176.005 53.3058M200.091 52.1379L194.604 50.956C194.604 50.956 193.459 42.7662 193.361 40.0131C193.263 37.2461 193.459 35.3411 193.459 35.3411C193.459 35.3411 196.489 34.9657 197.299 31.2393C198.095 27.5268 196.824 25.5523 196.265 24.9127" stroke="black" stroke-width="1.1669" stroke-linecap="round" stroke-linejoin="round"/>
<path d="M171.202 184.969C171.425 180.213 171.635 175.472 171.774 170.772C171.774 170.772 188.418 164.835 196.182 158.911C203.959 152.988 211.318 145.16 212.127 135.51C212.937 125.86 212.016 121.466 212.016 121.466M132.496 142.879C131.198 144.186 129.969 145.535 128.824 146.94C125.054 151.584 124.635 163.152 125.612 176.348L132.496 142.879Z" stroke="black" stroke-width="1.1669" stroke-linecap="round" stroke-linejoin="round"/>
<path fill-rule="evenodd" clip-rule="evenodd" d="M232.667 146.301C232.667 146.301 229.497 148.053 227.375 152.474C225.266 156.896 223.996 163.376 223.996 163.376C223.996 163.376 218.396 169.66 217.992 170.912C217.587 172.163 222.278 172.998 222.278 172.998C222.278 172.998 221.399 175.862 221.454 176.182C221.496 176.515 228.869 176.988 229.469 177.294C229.441 177.934 223.591 180.701 222.53 181.41C221.468 182.105 223.465 184.316 223.465 184.316C223.465 184.316 220.952 192.353 223.563 193.312C226.188 194.271 237.135 192.464 237.135 192.464L237.791 200.848L258.819 196.621L257.214 180.548C257.214 180.548 267.798 168.395 264.07 156.145C260.327 143.895 242.58 140.475 232.667 146.301Z" fill="white" stroke="black" stroke-width="1.1669" stroke-linecap="round" stroke-linejoin="round"/>
<path d="M230.151 166.387C230.937 166.465 231.652 165.741 231.748 164.771C231.845 163.801 231.286 162.951 230.5 162.874C229.714 162.797 228.999 163.52 228.903 164.491C228.806 165.461 229.365 166.31 230.151 166.387Z" fill="black"/>
<path d="M228.785 158.773C228.785 158.773 229.748 158.203 231.508 158.606C233.281 159.01 233.7 159.913 233.7 159.913" stroke="black" stroke-width="1.1669" stroke-linecap="round" stroke-linejoin="round"/>
<path fill-rule="evenodd" clip-rule="evenodd" d="M144.392 182.161C144.392 182.161 151.834 224.43 150.983 224.514C150.145 224.597 208.483 211.249 208.483 211.249L202.185 168.798L144.392 182.161Z" fill="#EF8354"/>
<path fill-rule="evenodd" clip-rule="evenodd" d="M226.034 140.683C225.127 147.413 228.813 149.123 232.29 150.152C235.766 151.181 241.701 151.139 241.338 155.561C240.989 159.969 239.578 160.428 240.779 162.833C241.994 165.252 240.235 169.563 242.05 169.924C243.865 170.272 243.711 165.155 248.962 167.102C254.198 169.062 251.629 176.195 249.213 178.1C246.783 180.019 246.337 179.56 246.937 182.272C247.551 184.983 249.101 188.849 251.377 189.001C253.653 189.154 252.941 187.152 255.817 187.347C258.694 187.542 259.197 186.749 260.956 183.023C262.729 179.31 266.611 179.366 268.217 176.501C269.836 173.637 269.027 170.578 270.744 167.755C272.461 164.947 277.656 161.331 276.036 157.438C274.43 153.545 271.247 150.833 271.303 149.026C271.344 147.218 271.33 141.921 267.421 141.768C263.511 141.615 259.141 143.631 256.139 140.183C253.151 136.748 250.595 132.924 247.063 135.191C240.709 139.251 227.389 130.658 226.034 140.683Z" fill="black" stroke="black" stroke-width="0.466762" stroke-linecap="round" stroke-linejoin="round"/>
<path d="M245.764 176.543C245.764 176.543 244.759 173.053 246.267 170.995C247.789 168.937 249.674 170.314 249.674 170.314" stroke="black" stroke-width="1.1669" stroke-linecap="round" stroke-linejoin="round"/>
<path d="M248.697 174.318L245.988 171.454" stroke="black" stroke-width="1.1669" stroke-linecap="round" stroke-linejoin="round"/>
<path fill-rule="evenodd" clip-rule="evenodd" d="M215.269 217.186C215.269 217.186 206.961 216.115 206.067 215.267C205.173 214.419 204.405 212.541 205.816 211.207C207.24 209.872 210.828 206.646 210.828 206.646C210.828 206.646 204.503 202.057 202.576 200.584C200.635 199.11 198.248 197.678 198.667 196.273C199.1 194.855 202.479 196.621 205.146 197.691C207.812 198.762 213.467 201.321 213.467 201.321C213.467 201.321 214.417 200 215.576 199.596C216.749 199.193 217.126 199.638 217.656 199.346C218.201 199.054 219.276 197.538 220.086 197.9C220.896 198.262 221.412 198.651 222.222 198.122C223.018 197.58 224.484 197.497 225.713 198.373C226.942 199.235 232.806 207.647 232.695 206.924C232.569 206.187 215.269 217.186 215.269 217.186Z" fill="white" stroke="black" stroke-width="1.1669" stroke-linecap="round" stroke-linejoin="round"/>
<path d="M149.978 184.774L189.619 175.834" stroke="black" stroke-width="1.1669" stroke-linecap="round" stroke-linejoin="round"/>
<path d="M193.626 173.623L197.606 175.973" stroke="black" stroke-width="1.1669" stroke-linecap="round" stroke-linejoin="round"/>
<path d="M196.963 172.747L194.171 176.849" stroke="black" stroke-width="1.1669" stroke-linecap="round" stroke-linejoin="round"/>
<path fill-rule="evenodd" clip-rule="evenodd" d="M151.402 190.461L155.479 214.266L176.661 209.538L172.668 185.581L151.402 190.461Z" fill="white"/>
<path fill-rule="evenodd" clip-rule="evenodd" d="M178.533 184.177L179.035 186.791L198.96 182.119L198.5 179.407L178.533 184.177Z" fill="white"/>
<path fill-rule="evenodd" clip-rule="evenodd" d="M179.845 190.948L180.348 193.562L193.668 190.448L193.208 187.736L179.845 190.948Z" fill="white"/>
<path d="M181.381 198.331L197.745 194.563" stroke="white" stroke-width="1.1669" stroke-linecap="round" stroke-linejoin="round"/>
<path d="M182.288 202.461L196.028 199.221" stroke="white" stroke-width="1.1669" stroke-linecap="round" stroke-linejoin="round"/>
<path d="M182.972 206.786L198.625 203.115" stroke="white" stroke-width="1.1669" stroke-linecap="round" stroke-linejoin="round"/>
<path fill-rule="evenodd" clip-rule="evenodd" d="M167.739 221.51C167.739 221.51 163.354 216.588 161.386 210.109C159.417 203.629 159.068 198.609 157.406 198.957C155.73 199.305 155.186 201.613 155.186 204.435C155.186 207.244 155.577 209.608 155.577 209.608L148.009 203.309L147.381 199.569C147.381 199.569 143.373 200.876 142.619 202.586C141.865 204.296 142.968 207.355 142.968 207.355C142.968 207.355 141.656 208.078 141.656 209.858C141.656 211.652 143.178 213.251 143.178 213.251C143.178 213.251 142.158 214.586 142.256 215.809C142.368 217.047 143.597 218.451 143.597 218.451C143.597 218.451 142.759 222.637 145.16 224.402C147.562 226.168 154.488 231.73 154.488 231.73L167.739 221.51Z" fill="white" stroke="black" stroke-width="1.1669" stroke-linecap="round" stroke-linejoin="round"/>
<path fill-rule="evenodd" clip-rule="evenodd" d="M206.514 224.264C206.514 224.264 212.867 212.417 220.798 208.844C222.949 207.884 226.886 206.73 231.676 205.576C231.676 205.576 232.513 200.376 234.678 199.528C236.856 198.679 256.628 195.606 256.628 195.606C256.628 195.606 261.961 194.355 263.176 195.565C264.391 196.761 266.011 199.263 266.011 199.263C267.533 199.083 268.845 198.957 269.865 198.902C279.038 198.401 286.913 200.807 289.036 215.073C290.893 227.657 289.161 263.642 288.715 271.984H183.294C171.02 259.581 163.131 249.57 152.03 231.689C152.952 220.023 165.044 217.687 167.543 219.842L197.494 245.566C197.494 245.566 205.16 226.419 206.514 224.264Z" fill="#EF8354"/>
<path d="M193.375 256.258L197.494 245.566" stroke="black" stroke-width="1.1669" stroke-linecap="round" stroke-linejoin="round"/>
<path d="M228.785 242.59L218.494 271.984" stroke="black" stroke-width="1.1669" stroke-linecap="round" stroke-linejoin="round"/>
<path d="M154.585 235.763C154.585 235.763 154.907 229.367 159.835 225.487C164.778 221.608 170.559 222.442 170.559 222.442" stroke="#D2521A" stroke-width="1.1669" stroke-linecap="round" stroke-linejoin="round"/>
<path d="M152.589 228.574L155.465 231.8" stroke="#D2521A" stroke-width="1.1669" stroke-linecap="round" stroke-linejoin="round"/>
<path d="M154.236 224.987L157.42 228.032" stroke="#D2521A" stroke-width="1.1669" stroke-linecap="round" stroke-linejoin="round"/>
<path d="M157.029 221.969L160.129 225.264" stroke="#D2521A" stroke-width="1.1669" stroke-linecap="round" stroke-linejoin="round"/>
<path d="M160.519 219.981L163.368 223.457" stroke="#D2521A" stroke-width="1.1669" stroke-linecap="round" stroke-linejoin="round"/>
<path d="M164.499 219.132L167.11 222.497" stroke="#D2521A" stroke-width="1.1669" stroke-linecap="round" stroke-linejoin="round"/>
<path d="M146.222 202.044L148.009 203.31" stroke="black" stroke-width="1.1669" stroke-linecap="round" stroke-linejoin="round"/>
<path d="M215.116 202.044L213.468 201.321" stroke="black" stroke-width="1.1669" stroke-linecap="round" stroke-linejoin="round"/>
<path d="M248.18 142.226C248.18 142.226 251.391 141.948 253.276 143.186C255.147 144.423 255.845 146.704 255.845 146.704" stroke="white" stroke-width="1.1669" stroke-linecap="round" stroke-linejoin="round"/>
<path d="M261.263 164.488C261.263 164.488 261.92 168.047 261.054 169.563C260.202 171.065 259.099 171.718 259.099 171.718" stroke="white" stroke-width="1.1669" stroke-linecap="round" stroke-linejoin="round"/>
<path d="M265.075 167.769C265.075 167.769 266.541 164.905 266.289 162.805C266.038 160.692 264.684 158.954 264.684 158.954" stroke="white" stroke-width="1.1669" stroke-linecap="round" stroke-linejoin="round"/>
<path d="M248.208 147.163C247.538 145.48 244.815 145.035 243 145.48" stroke="white" stroke-width="1.1669" stroke-linecap="round" stroke-linejoin="round"/>
<path d="M235.893 204.797C246.951 202.42 254.854 201.015 266.011 199.263" stroke="#D2521A" stroke-width="1.1669" stroke-linecap="round" stroke-linejoin="round"/>
<path d="M24.8132 102.473L23.3052 88.6104M23.3052 88.6104C21.3085 87.6927 16.7984 85.3011 15.9188 82.1448C14.7738 78.0707 18.2645 77.0001 18.2645 77.0001L23.3052 88.6104ZM48.2432 59.8001C48.2432 59.8001 51.4268 75.3593 51.7061 81.4634C51.9853 87.5815 50.198 92.1422 48.0757 93.9497C45.9393 95.7712 42.5742 96.2857 42.5742 96.2857" stroke="black" stroke-width="1.1669" stroke-linecap="round" stroke-linejoin="round"/>
<path fill-rule="evenodd" clip-rule="evenodd" d="M22.0901 195.648C22.0901 195.648 25.0084 217.45 33.079 236.124C38.4827 248.624 46.679 264.712 51.5102 274H112.71L85.4405 182.188L22.0901 195.648Z" fill="black"/>
<path fill-rule="evenodd" clip-rule="evenodd" d="M26.8793 103.947L23.193 103.433C23.193 103.433 -0.111304 113.792 0.000400294 131.061C0.0981417 148.345 2.91868 157.174 7.16345 163.904C11.3943 170.634 17.6497 173.957 17.6497 173.957L19.5626 196.552C19.5626 196.552 19.4649 201.877 23.3466 201.974C27.2284 202.086 55.9783 202.28 71.6169 196.051C87.2555 189.822 88.5541 187.11 88.0514 183.593C87.5487 180.075 81.6982 158.578 81.6982 158.578C81.6982 158.578 95.7171 153.461 93.6087 141.503C91.4863 129.559 80.2461 111.623 71.7146 105.143C63.1972 98.6635 46.0366 100.429 46.0366 100.429C46.0366 100.429 36.821 107.91 26.8793 103.947Z" fill="#D7F0F7"/>
<path fill-rule="evenodd" clip-rule="evenodd" d="M48.2432 59.8001C48.2432 59.8001 51.4268 75.3594 51.7061 81.4635C51.9853 87.5815 50.198 92.1422 48.0757 93.9498C45.9393 95.7713 42.5742 96.2857 42.5742 96.2857L43.8449 100.374L46.0371 100.429C46.0371 100.429 47.8523 110.955 36.3048 112.373C24.7574 113.778 23.1935 103.433 23.1935 103.433L24.8132 102.473L23.3052 88.6104C21.3085 87.6927 16.7984 85.3011 15.9188 82.1448C14.7738 78.0708 18.2645 77.0001 18.2645 77.0001C18.2645 77.0001 10.7524 61.3714 28.0108 56.0598C45.2551 50.7483 48.2432 59.8001 48.2432 59.8001Z" fill="white"/>
<path fill-rule="evenodd" clip-rule="evenodd" d="M24.3659 76.7218C24.4636 77.57 24.5614 78.3069 24.5893 78.8492C24.7149 81.0322 23.4862 80.3787 22.7182 79.0161C21.9503 77.6534 20.3166 76.7774 18.264 76.9999C18.264 76.9999 14.7733 78.0706 15.9182 82.1446C17.0632 86.2326 23.3047 88.6102 23.3047 88.6102C23.3047 88.6102 23.6398 91.7944 24.0028 95.0898C19.8558 93.31 15.3597 88.4295 10.9613 79.5723C6.56298 70.715 7.26113 66.1961 10.2492 60.1059C13.2373 54.0018 17.8451 52.3471 25.2874 50.8871C32.7297 49.4271 41.6242 47.703 41.6242 47.703C49.8484 46.4238 53.2694 43.9487 54.6936 46.2569C56.1318 48.5651 52.4595 50.9845 52.4595 50.9845C52.4595 50.9845 57.4304 50.9845 58.0029 53.5429C58.5754 56.1013 51.8312 57.7977 51.8312 57.7977C51.8312 57.7977 55.8386 59.6609 54.917 61.3156C54.0094 62.9563 48.9548 63.4291 48.9548 63.4291C48.9548 63.4291 46.8464 63.4151 43.0903 63.4708C41.6801 63.4847 39.9486 63.3456 38.0776 63.2483C38.3429 63.7071 38.4127 64.2772 37.9938 64.9168C36.8488 66.6966 28.9458 65.1393 28.9458 65.1393C28.9458 65.1393 28.1359 68.8657 24.0447 68.4069C23.4024 70.6177 23.6677 73.4682 24.3659 76.7218Z" fill="black" stroke="black" stroke-width="0.466762" stroke-linecap="round" stroke-linejoin="round"/>
<path d="M35.4781 77.8901C34.8345 78.0438 34.1357 77.4338 33.9174 76.5275C33.6991 75.6212 34.0439 74.7619 34.6875 74.6082C35.3311 74.4544 36.0299 75.0645 36.2482 75.9707C36.4665 76.877 36.1217 77.7363 35.4781 77.8901Z" fill="black"/>
<path d="M46.9775 74.4613C46.3339 74.6151 45.6352 74.005 45.4168 73.0987C45.1985 72.1925 45.5433 71.3331 46.1869 71.1794C46.8306 71.0256 47.5293 71.6357 47.7477 72.542C47.966 73.4482 47.6212 74.3076 46.9775 74.4613Z" fill="black"/>
<path d="M41.7221 73.6075C41.7221 73.6075 44.6404 79.8368 43.9562 81.269C43.258 82.7011 41.2613 82.3952 41.2613 82.3952" stroke="black" stroke-width="1.1669" stroke-linecap="round" stroke-linejoin="round"/>
<path d="M17.7611 79.7667C20.6794 80.1282 23.0671 82.7284 23.486 85.5371" stroke="black" stroke-width="1.1669" stroke-linecap="round" stroke-linejoin="round"/>
<path d="M19.4373 83.2846L21.448 81.6995" stroke="black" stroke-width="1.1669" stroke-linecap="round" stroke-linejoin="round"/>
<path d="M35.1457 71.1465C35.1457 71.1465 34.3219 71.1604 33.0233 71.6471C31.7247 72.1337 31.1383 72.7594 31.1383 72.7594" stroke="black" stroke-width="1.1669" stroke-linecap="round" stroke-linejoin="round"/>
<path d="M47.3911 68.3655C45.911 68.1291 44.417 68.7131 43.2161 69.5335" stroke="black" stroke-width="1.1669" stroke-linecap="round" stroke-linejoin="round"/>
<path d="M48.0472 56.1987C45.7573 55.1976 42.3642 54.2938 38.0078 54.266" stroke="white" stroke-width="1.1669" stroke-linecap="round" stroke-linejoin="round"/>
<path d="M46.6369 50.7346C44.1655 50.5956 42.6016 50.5539 39.6694 50.9571" stroke="white" stroke-width="1.1669" stroke-linecap="round" stroke-linejoin="round"/>
<path d="M40.3536 58.6732C38.9853 58.0753 37.2399 57.5053 35.1175 57.1437" stroke="white" stroke-width="1.1669" stroke-linecap="round" stroke-linejoin="round"/>
<path d="M17.9569 74.2328C17.8172 73.1344 17.7054 71.883 17.7194 70.6177C17.7194 70.0198 17.7473 69.408 17.8172 68.8101" stroke="white" stroke-width="1.1669" stroke-linecap="round" stroke-linejoin="round"/>
<path d="M15.1643 72.5922C14.9826 70.9792 14.8988 69.0187 15.1224 67.1833" stroke="white" stroke-width="1.1669" stroke-linecap="round" stroke-linejoin="round"/>
<path d="M11.7713 71.8556C11.6316 70.771 11.5617 69.6309 11.6037 68.5185" stroke="white" stroke-width="1.1669" stroke-linecap="round" stroke-linejoin="round"/>
<path d="M41.4009 89.8199C42.2954 89.8199 43.0206 88.9359 43.0206 87.8455C43.0206 86.755 42.2954 85.871 41.4009 85.871C40.5063 85.871 39.7812 86.755 39.7812 87.8455C39.7812 88.9359 40.5063 89.8199 41.4009 89.8199Z" fill="black" stroke="black" stroke-width="1.1669" stroke-linecap="round" stroke-linejoin="round"/>
<path d="M43.7465 85.5096C42.6574 85.3427 41.3309 85.6625 40.7723 86.024" stroke="black" stroke-width="1.1669" stroke-linecap="round" stroke-linejoin="round"/>
<path fill-rule="evenodd" clip-rule="evenodd" d="M24.1841 133.481L20.8469 151.056C20.8469 151.056 17.2165 152.516 15.5549 152.919C13.8933 153.322 13.3907 152.293 13.3907 152.293C13.3907 152.293 12.0921 152.613 11.5615 151.932C11.0449 151.264 11.1845 149.902 11.1845 149.902C11.1845 149.902 10.2769 149.582 10.1373 148.525C9.98368 147.469 10.4026 146.036 10.4026 146.036C10.4026 146.036 9.20175 141.267 13.8375 137.193C18.4732 133.133 24.1841 133.481 24.1841 133.481Z" fill="white"/>
<path d="M19.0043 147.218C19.0043 147.218 16.3094 148.748 15.2483 149.846C14.1871 150.959 13.3912 152.293 13.3912 152.293" stroke="black" stroke-width="1.1669" stroke-linecap="round" stroke-linejoin="round"/>
<path d="M19.4091 141.768C19.4091 141.768 16.4908 143.603 14.6477 145.383C12.8045 147.163 11.1848 149.902 11.1848 149.902" stroke="black" stroke-width="1.1669" stroke-linecap="round" stroke-linejoin="round"/>
<path d="M19.5624 137.666C19.5624 137.666 17.1189 138.222 14.8429 140.154C12.5809 142.087 10.4026 146.036 10.4026 146.036" stroke="black" stroke-width="1.1669" stroke-linecap="round" stroke-linejoin="round"/>
<path d="M81.6985 158.578C81.6985 158.578 74.6611 161.373 63.8677 161.178C53.0882 160.969 43.4677 156.854 43.4677 156.854" stroke="black" stroke-width="1.1669" stroke-linecap="round" stroke-linejoin="round"/>
<path d="M84.6584 137.624L45.1849 137.861" stroke="black" stroke-width="1.1669" stroke-linecap="round" stroke-linejoin="round"/>
<path d="M69.0198 116.878L75.373 137.679" stroke="black" stroke-width="1.1669" stroke-linecap="round" stroke-linejoin="round"/>
<path d="M19.088 125.721L19.9398 134.009" stroke="black" stroke-width="1.1669" stroke-linecap="round" stroke-linejoin="round"/>
<path d="M28.0661 116.35C28.0661 116.35 35.285 117.726 39.1388 118.602C42.9926 119.492 45.7014 120.215 45.7014 120.215" stroke="#6CA3B7" stroke-width="1.1669" stroke-linecap="round" stroke-linejoin="round"/>
<path d="M31.7944 113.43L31.2075 116.961" stroke="#6CA3B7" stroke-width="1.1669" stroke-linecap="round" stroke-linejoin="round"/>
<path d="M34.3502 113.972L33.8331 117.49" stroke="#6CA3B7" stroke-width="1.1669" stroke-linecap="round" stroke-linejoin="round"/>
<path d="M37.2541 114.57L36.7511 118.088" stroke="#6CA3B7" stroke-width="1.1669" stroke-linecap="round" stroke-linejoin="round"/>
<path d="M40.019 115.154L39.488 118.686" stroke="#6CA3B7" stroke-width="1.1669" stroke-linecap="round" stroke-linejoin="round"/>
<path d="M42.4622 115.682L42.1408 119.311" stroke="#6CA3B7" stroke-width="1.1669" stroke-linecap="round" stroke-linejoin="round"/>
<path d="M68.4195 204.894V213.724L85.4684 274" stroke="white" stroke-width="1.1669" stroke-linecap="round" stroke-linejoin="round"/>
<path d="M31.2636 206.952C31.2636 206.952 32.9252 208.148 35.4385 209.163C37.9658 210.164 40.3396 210.859 40.3396 210.859" stroke="white" stroke-width="1.1669" stroke-linecap="round" stroke-linejoin="round"/>
<path d="M32.5624 212.528C32.5624 212.528 34.5591 213.696 35.5924 214.085C36.6257 214.46 36.9887 214.711 36.9887 214.711" stroke="white" stroke-width="1.1669" stroke-linecap="round" stroke-linejoin="round"/>
<path d="M30.9143 93.0873C30.9143 93.0873 32.7994 95.1591 36.0667 95.9516C39.3341 96.7442 42.5735 96.2853 42.5735 96.2853" stroke="black" stroke-width="1.1669" stroke-linecap="round" stroke-linejoin="round"/>
<path d="M42.4621 114.403C47.1118 112.734 50.1697 106.825 50.1697 100.22M20.3027 104.892C20.3027 104.892 22.2855 112.137 28.3315 115.196L20.3027 104.892Z" stroke="#6CA3B7" stroke-width="1.1669" stroke-linecap="round" stroke-linejoin="round"/>
<path fill-rule="evenodd" clip-rule="evenodd" d="M30.5656 113.179L42.113 115.585C42.113 115.585 42.6157 112.721 42.6157 112.554C42.6157 112.373 48.8013 108.786 49.2062 107.451C49.5972 106.116 48.6756 104.962 48.6756 104.962C48.6756 104.962 49.3459 103.905 49.0247 102.834C48.6896 101.75 48.2986 101.527 48.2986 101.527C48.2986 101.527 48.8432 100.165 48.2986 99.4834C47.7401 98.816 46.9163 98.6214 46.9163 98.6214C46.9163 98.6214 48.6058 96.2576 48.3824 95.2147C48.159 94.158 46.3019 94.8115 46.3019 94.8115L37.7844 98.0096C37.7844 98.0096 34.4194 90.807 31.9479 91.8081C29.6998 92.7119 33.6374 97.0501 33.6374 100.777C33.6374 104.489 30.5656 113.179 30.5656 113.179Z" fill="white" stroke="black" stroke-width="1.1669" stroke-linecap="round" stroke-linejoin="round"/>
<path d="M19.8421 155.95L20.8475 151.056L24.1846 133.48L28.0664 116.35L28.8762 112.804L30.5657 113.18L42.1132 115.585L45.7157 116.628C45.7157 116.628 45.8693 142.49 43.1465 158.967C40.4237 175.444 31.8922 177.447 27.1588 177.6C22.4113 177.752 18.2783 174.429 18.2783 174.429" stroke="black" stroke-width="1.1669" stroke-linecap="round" stroke-linejoin="round"/>
<path fill-rule="evenodd" clip-rule="evenodd" d="M46.162 199.903L77.523 209.678L123.769 187.555L131.378 158.94L133.459 150.389L130.638 148.748L126.854 150.389C117.639 154.282 86.585 167.797 86.585 167.797L84.672 168.715C84.2671 170.87 83.6527 172.844 83.0104 174.777L81.293 182.341L80.6367 182.661L46.162 199.903Z" fill="#EF8354"/>
<path d="M78.0534 207.495L87.283 170.091L131.602 151.125" stroke="white" stroke-width="1.1669" stroke-linecap="round" stroke-linejoin="round"/>
<path d="M80.8601 183.884L75.8893 205.242" stroke="black" stroke-width="1.1669" stroke-linecap="round" stroke-linejoin="round"/>
<path d="M69.7313 191.504L80.4131 185.803" stroke="black" stroke-width="1.1669" stroke-linecap="round" stroke-linejoin="round"/>
<path d="M74.8421 203.045L71.1419 201.891L74.6885 199.778" stroke="black" stroke-width="1.1669" stroke-linecap="round" stroke-linejoin="round"/>
<path d="M69.592 201.515L66.3805 200.639L70.346 198.498" stroke="black" stroke-width="1.1669" stroke-linecap="round" stroke-linejoin="round"/>
<path d="M64.719 200.181L61.8426 199.291L65.9757 197.206" stroke="black" stroke-width="1.1669" stroke-linecap="round" stroke-linejoin="round"/>
<path d="M75.2329 198.429L72.0353 197.539L75.9869 195.412" stroke="black" stroke-width="1.1669" stroke-linecap="round" stroke-linejoin="round"/>
<path d="M70.3738 197.094L67.4834 196.204L71.6165 194.104" stroke="black" stroke-width="1.1669" stroke-linecap="round" stroke-linejoin="round"/>
<path d="M76.4755 193.743L73.5852 192.867L77.7182 190.768" stroke="black" stroke-width="1.1669" stroke-linecap="round" stroke-linejoin="round"/>
</svg>
