<svg width="248" height="275" viewBox="0 0 248 275" fill="none" xmlns="http://www.w3.org/2000/svg">
<path fill-rule="evenodd" clip-rule="evenodd" d="M127.678 176.919C174.583 169.22 190.135 144.765 190.135 144.765C190.135 144.765 118.774 132.245 79.8596 136.325C40.9455 140.404 22.1769 144.765 22.1769 144.765L0 168.31C34.8285 183.179 80.7738 184.618 127.678 176.919Z" fill="#D7F0F7"/>
<path fill-rule="evenodd" clip-rule="evenodd" d="M187.347 219.11C187.347 219.11 182.822 224.066 178.127 226.415C173.443 228.775 170.339 230.562 171.445 233.36C172.54 236.159 181.151 235.395 187.347 233.36C193.543 231.326 198.103 228.123 198.509 227.19C198.915 226.258 198.272 219.391 197.538 217.649C196.805 215.907 187.347 219.11 187.347 219.11Z" fill="white" stroke="black" stroke-width="0.989017" stroke-linecap="round" stroke-linejoin="round"/>
<path fill-rule="evenodd" clip-rule="evenodd" d="M231.453 202.139C231.453 202.139 232.875 209.894 232.626 214.805C232.389 219.716 231.328 223.864 234.838 225.077C238.337 226.291 243.348 221.144 245.47 211.928C247.591 202.712 246.497 195.239 246.452 194.789C246.406 194.351 240.865 192.395 240.414 192.317C239.973 192.238 231.453 202.139 231.453 202.139Z" fill="white" stroke="black" stroke-width="0.989017" stroke-linecap="round" stroke-linejoin="round"/>
<path fill-rule="evenodd" clip-rule="evenodd" d="M172.1 101.755C172.1 101.755 168.104 107.599 172.337 139.101C176.58 170.603 185.101 219.683 185.428 220.009C187.302 221.874 196.534 219.537 199.005 218.053C196.974 189.642 196.082 161.669 194.604 133.291L195.744 133.133C195.744 133.133 199.242 156.802 203.734 169.794C208.215 182.775 229.906 203.162 230.956 203.803C232.017 204.454 235.606 202.184 239.037 199.015C242.456 195.846 242.005 191.991 242.005 191.991C242.005 191.991 221.95 166.827 221.464 162.365C220.979 157.892 218.451 113.971 217.469 108.127C216.487 102.283 216.25 101.789 216.25 101.789L172.1 101.755Z" fill="black" stroke="black" stroke-width="0.395607" stroke-linecap="round" stroke-linejoin="round"/>
<path fill-rule="evenodd" clip-rule="evenodd" d="M164.312 65.9818L163.003 78.5692L152.778 112.611L159.448 117.219C159.448 117.219 174.583 86.1216 176.129 79.3784C177.675 72.6464 178.081 67.4428 178.081 67.4428L164.312 65.9818Z" fill="white" stroke="black" stroke-width="0.989017" stroke-linecap="round" stroke-linejoin="round"/>
<path fill-rule="evenodd" clip-rule="evenodd" d="M173.454 45.2577C173.454 45.2577 184.582 37.4468 198.723 39.9755C217.074 43.2572 221.95 51.0681 220.663 68.6342L213.971 69.4434C213.971 69.4434 212.91 77.7263 214.377 86.987C215.167 91.9545 216.217 96.5287 217.018 99.698C217.029 99.889 217.086 100.114 217.198 100.395C217.323 100.901 217.447 101.361 217.56 101.777C217.774 103.688 216.533 104.8 215.472 105.385C211.476 107.048 203.441 109.745 193.588 109.633C183.792 109.521 176.129 107.441 172.325 106.16C169.448 104.969 170.655 102.598 171.389 100.53C172.246 97.956 174.255 92.6738 174.549 90.2687C174.921 87.3129 174.921 84.6269 174.921 84.6269C174.921 84.6269 170.192 81.4688 169.493 77.7263C168.804 73.995 170.102 68.8028 170.102 68.8028L161.954 67.0945C161.954 67.0945 163.161 51.4389 173.454 45.2577Z" fill="#D7F0F7"/>
<path fill-rule="evenodd" clip-rule="evenodd" d="M202.775 70.6914L213.971 69.4439L218.688 68.8707C218.688 68.8707 218.18 82.8292 209.547 94.9221C200.901 107.015 191.692 113.275 191.692 113.275C191.692 113.275 191.805 116.602 191.647 117.534C191.489 118.467 191.117 119.85 191.117 119.85C191.117 119.85 192.832 119.647 192.426 121.558C192.019 123.457 189.774 125.57 188.058 126.469C186.343 127.357 185.169 125.952 185.169 125.952C185.169 125.952 183.848 125.84 183.149 125.525C182.46 125.222 182.133 124.693 182.133 124.693C182.133 124.693 180.361 124.592 179.503 123.704C178.646 122.805 177.957 119.243 177.957 119.243C177.957 119.243 171.186 124.997 169.56 125.076C167.924 125.154 168.33 124.12 169.572 122.513C170.813 120.917 176.163 116.197 177.709 114.534C179.255 112.87 187.494 102.149 187.494 102.149L201.883 81.1209L202.775 70.6914Z" fill="white"/>
<path fill-rule="evenodd" clip-rule="evenodd" d="M171.197 8.14753C164.267 12.5306 164.346 16.5091 165.407 22.6792C166.513 29.074 172.314 41.6277 180.417 40.9084C174.605 55.676 190.326 56.8449 193.577 45.8197C194.389 43.055 194.559 39.571 194.559 39.571L191.579 27.7928C191.579 27.7928 195.529 25.7923 195.45 21.8475C195.371 17.914 192.109 18.15 192.109 18.15C192.561 6.75393 179.289 3.03391 171.197 8.14753Z" fill="white"/>
<path d="M179.806 26.1718C180.351 26.1057 180.729 25.5352 180.651 24.8977C180.573 24.2601 180.068 23.7969 179.523 23.863C178.979 23.9291 178.6 24.4996 178.679 25.1371C178.757 25.7747 179.261 26.2379 179.806 26.1718Z" fill="black"/>
<path d="M169.881 27.7165C170.426 27.6504 170.804 27.0799 170.726 26.4423C170.648 25.8048 170.143 25.3415 169.598 25.4077C169.054 25.4738 168.675 26.0443 168.754 26.6818C168.832 27.3194 169.336 27.7826 169.881 27.7165Z" fill="black"/>
<path d="M173.838 25.2192C173.838 25.2192 174.03 27.984 174.03 29.2427C174.03 30.5014 173.883 31.142 173.883 31.142L176.513 31.3893" stroke="black" stroke-width="0.989017" stroke-linecap="round" stroke-linejoin="round"/>
<path fill-rule="evenodd" clip-rule="evenodd" d="M177.607 33.6596L181.365 31.8389C181.365 31.8389 181.93 34.4575 180.101 35.1094C178.262 35.75 177.607 33.6596 177.607 33.6596Z" stroke="black" stroke-width="0.989017" stroke-linecap="round" stroke-linejoin="round"/>
<path d="M177.709 20.915C177.709 20.915 178.713 20.6902 179.853 20.6902C180.993 20.6902 181.298 20.7576 181.298 20.7576" stroke="black" stroke-width="0.989017" stroke-linecap="round" stroke-linejoin="round"/>
<path d="M170.317 22.1058C170.317 22.1058 169.515 22.162 168.499 22.5104C167.484 22.8588 167.01 23.2409 167.01 23.2409" stroke="black" stroke-width="0.989017" stroke-linecap="round" stroke-linejoin="round"/>
<path d="M191.523 25.5115C191.523 25.5115 191.116 23.9493 191.376 22.3647C191.647 20.78 192.934 19.9708 192.934 19.9708" stroke="black" stroke-width="0.989017" stroke-linecap="round" stroke-linejoin="round"/>
<path d="M193.171 22.9156L191.376 22.3649" stroke="black" stroke-width="0.989017" stroke-linecap="round" stroke-linejoin="round"/>
<path d="M176.716 34.0639L177.607 33.6595" stroke="black" stroke-width="0.989017" stroke-linecap="round" stroke-linejoin="round"/>
<path d="M187.054 35.0529C186.14 38.0874 184.232 39.4135 181.625 40.4587" stroke="black" stroke-width="0.989017" stroke-linecap="round" stroke-linejoin="round"/>
<path d="M181.433 44.0894L180.666 41.7068" stroke="black" stroke-width="0.989017" stroke-linecap="round" stroke-linejoin="round"/>
<path d="M172.291 60.4974L170.677 67.3306" stroke="black" stroke-width="0.989017" stroke-linecap="round" stroke-linejoin="round"/>
<path d="M189.638 62.3295C190.305 62.3295 190.846 61.7558 190.846 61.0482C190.846 60.3406 190.305 59.767 189.638 59.767C188.971 59.767 188.43 60.3406 188.43 61.0482C188.43 61.7558 188.971 62.3295 189.638 62.3295Z" fill="black"/>
<path d="M180.869 120.782C180.869 120.782 181.129 122.625 181.377 123.255C181.614 123.884 182.133 124.693 182.133 124.693" stroke="black" stroke-width="0.989017" stroke-linecap="round" stroke-linejoin="round"/>
<path d="M184.131 121.636C184.131 121.636 184.413 123.479 184.616 124.153C184.819 124.816 185.169 125.951 185.169 125.951" stroke="black" stroke-width="0.989017" stroke-linecap="round" stroke-linejoin="round"/>
<path d="M187.528 124.457C187.528 124.457 188.916 123.401 189.773 122.187C190.631 120.962 191.117 119.849 191.117 119.849" stroke="black" stroke-width="0.989017" stroke-linecap="round" stroke-linejoin="round"/>
<path d="M177.573 43.044C173.612 62.4308 200.315 57.3284 198.328 39.9084" stroke="#6CA3B7" stroke-width="0.989017" stroke-linecap="round" stroke-linejoin="round"/>
<path d="M184.412 67.926C184.728 63.8239 184.638 63.3519 184.988 55.4398" stroke="#6CA3B7" stroke-width="0.989017" stroke-linecap="round" stroke-linejoin="round"/>
<path d="M218.688 68.8707C218.688 68.8707 218.18 82.8292 209.547 94.9221C200.901 107.015 191.692 113.275 191.692 113.275C191.692 113.275 191.805 116.602 191.647 117.534C191.489 118.467 191.117 119.85 191.117 119.85C191.117 119.85 192.832 119.647 192.426 121.558C192.019 123.457 189.774 125.57 188.058 126.469C186.343 127.357 185.169 125.952 185.169 125.952C185.169 125.952 183.848 125.84 183.149 125.525C182.46 125.222 182.133 124.693 182.133 124.693C182.133 124.693 180.361 124.592 179.503 123.704C178.646 122.805 177.957 119.243 177.957 119.243C177.957 119.243 171.186 124.997 169.56 125.076C167.924 125.154 168.33 124.12 169.572 122.513C170.813 120.917 176.163 116.197 177.709 114.534C179.255 112.87 187.494 102.149 187.494 102.149L201.883 81.1209L202.775 70.6914" stroke="black" stroke-width="0.989017" stroke-linecap="round" stroke-linejoin="round"/>
<path d="M205.043 81.8732L201.883 81.1202" stroke="black" stroke-width="0.989017" stroke-linecap="round" stroke-linejoin="round"/>
<path d="M165.543 79.0188L163.003 78.5693" stroke="black" stroke-width="0.989017" stroke-linecap="round" stroke-linejoin="round"/>
<path d="M201.5 61.8125L201.071 70.5562L210.901 69.792" stroke="black" stroke-width="0.989017" stroke-linecap="round" stroke-linejoin="round"/>
<path fill-rule="evenodd" clip-rule="evenodd" d="M169.38 4.18044C160.656 11.2496 159.268 27.6469 162.044 40.4702C163.083 45.2916 164.933 48.9105 167.349 51.2257C168.906 48.9105 170.892 46.7864 173.454 45.2579C173.454 45.2579 175.915 43.5834 180 42.0437C180.124 41.6728 180.26 41.2907 180.418 40.9085C172.314 41.6278 166.513 29.0742 165.407 22.6794C165.193 21.3869 165.012 20.1844 164.933 19.0605L164.945 19.2403C167.281 18.5323 173.432 16.5655 176.242 14.6437C179.741 12.2498 181.704 10.1819 181.704 10.1819C181.704 10.1819 181.535 14.0368 183.251 16.9926C184.966 19.9596 186.016 18.1389 186.016 18.1389C186.016 18.1389 187.934 23.0502 188.837 23.5785C189.684 24.073 189.503 20.499 190.327 19.2291C190.699 18.7009 191.252 18.2738 192.11 18.1502C192.11 18.1502 195.372 17.9141 195.451 21.8477C195.53 25.7925 191.58 27.793 191.58 27.793L190.914 28.3212C190.914 28.3212 188.713 38.998 188.713 46.3031C188.713 53.6195 187.246 63.0263 193.521 64.7346C195.846 65.3752 197.516 64.9706 198.69 64.2289C200.947 64.3637 202.99 63.8692 204.197 63.1275C206.556 61.6665 208.351 59.5536 208.351 59.5536C208.351 59.5536 203.791 57.0361 203.87 44.0442C203.949 31.0522 202.606 13.9244 198.159 8.15894C193.724 2.39348 188.871 2.56206 188.871 2.56206C182.81 -1.64122 175.012 -0.371241 169.38 4.18044Z" fill="#EF8354"/>
<path d="M182.641 8.14761C182.641 8.14761 183.702 6.36066 185 4.97829C186.309 3.59593 187.686 3.034 187.686 3.034" stroke="white" stroke-width="0.989017" stroke-linecap="round" stroke-linejoin="round"/>
<path d="M177.337 8.39502C177.337 8.39502 171.875 11.2384 170.08 12.7781C168.286 14.3178 167.721 14.9247 167.721 14.9247" stroke="white" stroke-width="0.989017" stroke-linecap="round" stroke-linejoin="round"/>
<path d="M179.537 5.27091C179.537 5.27091 176.885 5.06861 175.181 5.75417C173.465 6.43973 171.456 7.99067 171.456 7.99067" stroke="white" stroke-width="0.989017" stroke-linecap="round" stroke-linejoin="round"/>
<path d="M177.822 2.46087C177.822 2.46087 179.458 2.25857 180.756 2.50582C182.065 2.75308 182.844 2.91042 182.844 2.91042" stroke="white" stroke-width="0.989017" stroke-linecap="round" stroke-linejoin="round"/>
<path d="M188.34 9.65369C188.34 9.65369 189.48 11.8452 189.807 12.4971C190.134 13.1377 190.665 13.8345 190.665 13.8345" stroke="white" stroke-width="0.989017" stroke-linecap="round" stroke-linejoin="round"/>
<path d="M192.008 9.48517C192.008 9.48517 194.536 13.1378 195.145 14.6437C195.766 16.1497 196.5 17.2848 196.5 17.2848" stroke="white" stroke-width="0.989017" stroke-linecap="round" stroke-linejoin="round"/>
<path d="M193.679 40.5377C193.679 40.5377 193.588 47.2809 193.351 49.9558C193.125 52.6418 193.442 53.6196 193.442 53.6196" stroke="white" stroke-width="0.989017" stroke-linecap="round" stroke-linejoin="round"/>
<path d="M196.613 35.5922L196.534 45.0103" stroke="white" stroke-width="0.989017" stroke-linecap="round" stroke-linejoin="round"/>
<path d="M199.863 40.1896C199.863 40.1896 199.468 43.3027 199.796 45.011C200.123 46.708 200.292 47.5285 200.292 47.5285" stroke="white" stroke-width="0.989017" stroke-linecap="round" stroke-linejoin="round"/>
<path d="M192.843 7.25964C192.843 7.25964 193.882 7.74291 194.615 8.82183C195.349 9.88951 195.574 10.5189 195.574 10.5189" stroke="white" stroke-width="0.989017" stroke-linecap="round" stroke-linejoin="round"/>
<path d="M167.393 43.1451C166.355 41.4817 165.746 39.0542 165.61 37.0762" stroke="white" stroke-width="0.989017" stroke-linecap="round" stroke-linejoin="round"/>
<path d="M169.753 39.9756L169.391 38.6382" stroke="white" stroke-width="0.989017" stroke-linecap="round" stroke-linejoin="round"/>
<path d="M212.763 111.016C212.763 111.016 211.657 113.084 210.799 114.016C209.942 114.949 209.411 115.399 209.411 115.399" stroke="white" stroke-width="0.989017" stroke-linecap="round" stroke-linejoin="round"/>
<path d="M213.125 115.028L211.172 117.511" stroke="white" stroke-width="0.989017" stroke-linecap="round" stroke-linejoin="round"/>
<path d="M117.792 66.3081C117.837 66.398 117.081 73.9167 116.844 76.3218L117.792 66.3081ZM117.792 66.3081C117.758 66.207 114.541 65.1955 114.541 61.6216C114.541 58.0477 117.363 58.4972 117.363 58.4972L117.792 66.3081ZM143.084 51.9675C143.264 53.3611 143.196 54.9008 143.106 56.5529C142.779 62.6443 141.188 69.4999 137.881 74.2539C135.454 77.7491 132.068 78.1425 130.455 78.1088" stroke="black" stroke-width="0.989017" stroke-linecap="round" stroke-linejoin="round"/>
<path fill-rule="evenodd" clip-rule="evenodd" d="M121.606 232.169C121.606 232.169 121.155 238.26 122.464 243.779C123.762 249.297 129.27 259.367 133.016 259.4C136.775 259.445 140.646 258.187 140.646 254.579C140.646 250.96 136.56 233.787 136.56 233.787L121.606 232.169Z" fill="white" stroke="black" stroke-width="0.989017" stroke-linecap="round" stroke-linejoin="round"/>
<path fill-rule="evenodd" clip-rule="evenodd" d="M147.406 225.269C147.406 225.269 147.372 232.855 147.982 233.788C148.591 234.721 157.439 252.174 163.263 250.916C169.098 249.657 168.928 245.802 167.755 241.588C166.57 237.362 161.389 225.381 161.389 225.381L147.406 225.269Z" fill="white" stroke="black" stroke-width="0.989017" stroke-linecap="round" stroke-linejoin="round"/>
<path fill-rule="evenodd" clip-rule="evenodd" d="M88.4591 135.842C88.4591 135.842 85.773 156.701 94.0005 163.928C102.239 171.154 121.076 178.145 121.076 178.145C121.076 178.145 120.218 231.191 120.748 232.54C121.279 233.877 124.337 236.923 129.958 237.373C135.589 237.811 137.418 233.956 137.418 233.956L146.999 179.887C146.999 179.887 146.548 225.111 146.92 226.078C147.282 227.056 150.588 230.506 155.565 230.427C160.531 230.337 162.856 226.572 162.856 226.572C162.856 226.572 172.438 176.223 171.704 167.625C170.971 159.016 167.551 152.363 156.626 146.193C145.702 140.012 137.305 133.28 137.305 133.28L88.4591 135.842Z" fill="black" stroke="black" stroke-width="0.989017" stroke-linecap="round" stroke-linejoin="round"/>
<path fill-rule="evenodd" clip-rule="evenodd" d="M103.391 155.128L126.662 167.873L166.863 157.724L177.494 136.281L180.519 129.83L178.544 128.077L175.282 128.773C167.348 130.381 140.578 136.146 140.578 136.146L138.908 136.562C138.253 138.203 137.452 139.675 136.617 141.102L134.043 146.823L133.479 146.969L103.391 155.128Z" fill="#EF8354"/>
<path d="M127.43 166.232L140.77 138.079L178.916 130.122" stroke="white" stroke-width="0.989017" stroke-linecap="round" stroke-linejoin="round"/>
<path fill-rule="evenodd" clip-rule="evenodd" d="M112.6 151.037C113.774 152.149 116.55 154.858 117.859 156.409C119.53 158.398 120.06 159.387 121.189 159.455C122.306 159.511 122.52 159.241 122.746 159.095C122.746 159.095 123.491 159.882 124.473 159.747C125.443 159.612 125.703 159.117 125.703 159.117C125.703 159.117 126.324 159.286 126.911 159.072C127.509 158.859 127.531 158.376 127.531 158.376C127.531 158.376 128.683 158.095 129.021 156.892C129.371 155.701 128.931 153.993 128.931 153.993C128.931 153.993 130.003 152.509 129.168 150.542C128.412 148.755 125.297 144.013 122.385 141.832L112.6 151.037Z" fill="white"/>
<path d="M118.096 152.712C119.202 153.982 122.227 157.634 122.746 159.095" stroke="black" stroke-width="0.989017" stroke-linecap="round" stroke-linejoin="round"/>
<path d="M120.85 151.397C120.85 151.397 121.945 152.453 123.491 154.656C125.049 156.87 125.308 158.219 125.647 159.197" stroke="black" stroke-width="0.989017" stroke-linecap="round" stroke-linejoin="round"/>
<path d="M123.356 149.834C125.274 151.857 127.08 155.622 127.531 158.376" stroke="black" stroke-width="0.989017" stroke-linecap="round" stroke-linejoin="round"/>
<path d="M125.376 148.362C126.662 149.733 128.141 152.285 128.931 153.993" stroke="black" stroke-width="0.989017" stroke-linecap="round" stroke-linejoin="round"/>
<path d="M112.6 151.037C113.774 152.149 116.55 154.858 117.859 156.409C119.53 158.398 120.06 159.387 121.189 159.455C122.306 159.511 122.52 159.241 122.746 159.095C122.746 159.095 123.491 159.882 124.473 159.747C125.443 159.612 125.703 159.117 125.703 159.117C125.703 159.117 126.324 159.286 126.911 159.072C127.509 158.859 127.531 158.376 127.531 158.376C127.531 158.376 128.683 158.095 129.021 156.892C129.371 155.701 128.931 153.993 128.931 153.993C128.931 153.993 130.003 152.509 129.168 150.542C128.412 148.755 125.297 144.013 122.385 141.832" stroke="black" stroke-width="0.989017" stroke-linecap="round" stroke-linejoin="round"/>
<path fill-rule="evenodd" clip-rule="evenodd" d="M100.242 83.5036C100.242 83.5036 107.172 77.4122 121.516 75.5466C135.872 73.681 150.137 76.7154 155.6 90.3255C161.062 103.924 159.821 121.075 159.177 132.156L144.032 135.404L142.734 114.567C142.734 114.567 140.522 131.729 140.443 133.999C140.364 136.269 137.26 137.899 133.671 139.281C130.082 140.652 123.604 140.697 123.604 140.697L112.431 151.194C112.431 151.194 84.3062 141.181 81.2928 128.436C78.2682 115.691 91.3599 88.8532 100.242 83.5036Z" fill="#D7F0F7"/>
<path d="M105.072 104.857L98.8763 123.367C98.8763 123.367 110.377 131.122 114.372 133.92C118.367 136.719 123.604 140.697 123.604 140.697" stroke="black" stroke-width="0.989017" stroke-linecap="round" stroke-linejoin="round"/>
<path d="M146.12 93.7311L143.817 106.779L141.91 120.603" stroke="black" stroke-width="0.989017" stroke-linecap="round" stroke-linejoin="round"/>
<path d="M113.503 77.1647C113.503 77.1647 116.708 86.4815 124.62 86.6501C132.531 86.8075 132.43 80.6149 132.463 78.8729C132.509 77.1309 132.181 74.782 132.181 74.782" stroke="#6CA3B7" stroke-width="0.989017" stroke-linecap="round" stroke-linejoin="round"/>
<path fill-rule="evenodd" clip-rule="evenodd" d="M128.05 112.466L123.152 130.369L162.947 121.918L168.003 105.037L128.05 112.466Z" fill="#EF8354"/>
<path fill-rule="evenodd" clip-rule="evenodd" d="M132.159 115.219L131.312 118.309L135.037 117.523L135.917 114.421L132.159 115.219Z" fill="white"/>
<path fill-rule="evenodd" clip-rule="evenodd" d="M130.658 121.457L129.811 124.547L133.547 123.749L134.416 120.659L130.658 121.457Z" fill="white"/>
<path d="M139.799 115.141L160.633 111.083" stroke="white" stroke-width="0.989017" stroke-linecap="round" stroke-linejoin="round"/>
<path d="M139.055 121.198L159.877 117.141" stroke="white" stroke-width="0.989017" stroke-linecap="round" stroke-linejoin="round"/>
<path fill-rule="evenodd" clip-rule="evenodd" d="M131.685 45.0222C143.512 45.8314 143.433 50.4617 143.106 56.5531C142.779 62.6445 141.188 69.5001 137.881 74.2541C135.454 77.7493 132.068 78.1427 130.455 78.1089C130.929 80.4578 130.218 84.7847 123.909 84.4251C117.611 84.0542 115.388 76.6816 115.388 76.6816C115.388 76.6816 116.291 76.4793 116.844 76.322C117.081 73.9169 117.837 66.3982 117.792 66.3083C117.758 66.2071 114.541 65.1957 114.541 61.6218C114.541 58.0478 117.363 58.4974 117.363 58.4974C118.503 50.2369 121.065 44.2917 131.685 45.0222Z" fill="white"/>
<path fill-rule="evenodd" clip-rule="evenodd" d="M143.151 52.6307C141.007 52.7543 138.468 52.6532 135.838 52.4509C136.007 52.8667 136.097 53.4287 135.793 53.9794C135.172 55.0583 130.669 52.9791 130.669 52.9791C130.669 52.9791 130.24 54.6537 127.983 54.339C126.222 54.103 124.924 53.2039 124.428 52.7993L124.326 52.8218C124.326 52.8218 122.069 60.3742 121.922 61.2958C121.787 62.2061 120.071 59.0817 117.363 58.4973C117.363 58.4973 114.541 58.0478 114.541 61.6217C114.541 65.1956 117.758 66.2071 117.792 66.3082C117.814 66.3532 117.656 68.0165 117.464 70.0282C117.464 70.0282 115.749 69.1516 113.83 65.1731C111.923 61.1946 110.49 51.2259 114.97 46.2696C119.462 41.3133 128.547 40.7514 130.951 40.0546C133.366 39.369 144.223 36.4919 145.837 38.1665C147.451 39.8523 144.472 42.1113 144.472 42.1113C144.472 42.1113 147.869 42.0888 148.523 43.5049C149.178 44.9322 145.758 46.146 145.713 46.5955C145.668 47.0451 148.015 48.2364 148.241 50.3493C148.467 52.4621 143.151 52.6307 143.151 52.6307Z" fill="black" stroke="black" stroke-width="0.989017" stroke-linecap="round" stroke-linejoin="round"/>
<path d="M134.213 63.0155C134.258 65.252 134.371 66.7805 134.755 68.9833C134.044 69.208 132.983 69.3317 132.26 69.1518" stroke="black" stroke-width="0.989017" stroke-linecap="round" stroke-linejoin="round"/>
<path d="M128.401 64.6997C128.89 64.7428 129.328 64.3171 129.378 63.7488C129.429 63.1805 129.073 62.6848 128.584 62.6417C128.095 62.5986 127.657 63.0243 127.607 63.5926C127.556 64.1609 127.912 64.6566 128.401 64.6997Z" fill="black"/>
<path d="M126.426 60.9247C127.058 60.5988 128.243 60.2167 129.338 59.947" stroke="black" stroke-width="0.989017" stroke-linecap="round" stroke-linejoin="round"/>
<path d="M138.298 59.9359C138.434 59.9584 138.569 59.9809 138.682 60.0033C139.416 60.1382 139.935 60.3293 139.935 60.3293" stroke="black" stroke-width="0.989017" stroke-linecap="round" stroke-linejoin="round"/>
<path fill-rule="evenodd" clip-rule="evenodd" d="M132.644 72.5462C132.644 72.5462 130.296 71.4673 129.179 71.0065C128.062 70.5345 127.385 70.1523 127.385 70.1523C127.385 70.1523 126.956 72.6473 128.897 73.4228C130.827 74.187 132.644 72.5462 132.644 72.5462Z" fill="white" stroke="black" stroke-width="0.989017" stroke-linecap="round" stroke-linejoin="round"/>
<path d="M116.268 60.1385C116.268 60.1385 117.532 60.8466 118.39 62.0042C119.236 63.1618 119.564 64.7239 119.564 64.7239" stroke="black" stroke-width="0.989017" stroke-linecap="round" stroke-linejoin="round"/>
<path d="M116.855 63.6453L118.39 62.0044" stroke="black" stroke-width="0.989017" stroke-linecap="round" stroke-linejoin="round"/>
<path d="M120.365 70.9502C120.365 70.9502 121.381 74.1982 123.83 76.1874C126.267 78.1767 130.454 78.1093 130.454 78.1093" stroke="black" stroke-width="0.989017" stroke-linecap="round" stroke-linejoin="round"/>
<path d="M137.595 64.3143C138.084 64.3574 138.522 63.9316 138.572 63.3633C138.623 62.795 138.267 62.2994 137.778 62.2562C137.289 62.2131 136.851 62.6389 136.801 63.2072C136.75 63.7755 137.106 64.2712 137.595 64.3143Z" fill="black"/>
<path d="M133.501 72.8604L132.644 72.5459" stroke="black" stroke-width="0.989017" stroke-linecap="round" stroke-linejoin="round"/>
<path d="M108.628 149.699C108.628 149.699 112.375 145.226 115.715 142.383C119.056 139.54 120.715 138.528 120.715 138.528" stroke="#6CA3B7" stroke-width="0.989017" stroke-linecap="round" stroke-linejoin="round"/>
<path d="M122.193 142.024L119.27 139.54" stroke="#6CA3B7" stroke-width="0.989017" stroke-linecap="round" stroke-linejoin="round"/>
<path d="M113.763 149.935L110.276 147.811" stroke="#6CA3B7" stroke-width="0.989017" stroke-linecap="round" stroke-linejoin="round"/>
<path d="M115.32 148.474L111.968 145.979" stroke="#6CA3B7" stroke-width="0.989017" stroke-linecap="round" stroke-linejoin="round"/>
<path d="M117.092 146.811L113.627 144.305" stroke="#6CA3B7" stroke-width="0.989017" stroke-linecap="round" stroke-linejoin="round"/>
<path d="M118.819 145.193L115.602 142.484" stroke="#6CA3B7" stroke-width="0.989017" stroke-linecap="round" stroke-linejoin="round"/>
<path d="M120.568 143.552L117.509 140.9" stroke="#6CA3B7" stroke-width="0.989017" stroke-linecap="round" stroke-linejoin="round"/>
<path d="M133.457 147.98L126.076 164.096" stroke="black" stroke-width="0.989017" stroke-linecap="round" stroke-linejoin="round"/>
<path d="M89.6107 125.795C93.8204 123.918 95.9309 123.446 98.8765 123.367" stroke="black" stroke-width="0.989017" stroke-linecap="round" stroke-linejoin="round"/>
<path d="M145.758 164.647C145.758 164.647 148.58 168.389 148.049 172.806C147.519 177.234 146.921 182.921 146.695 182.876" stroke="white" stroke-width="0.989017" stroke-linecap="round" stroke-linejoin="round"/>
<path d="M143.151 46.8876C140.916 46.0335 137.655 45.3142 133.49 45.4603" stroke="white" stroke-width="0.989017" stroke-linecap="round" stroke-linejoin="round"/>
<path d="M141.583 41.7291C139.213 41.7066 137.723 41.7291 134.935 42.2349" stroke="white" stroke-width="0.989017" stroke-linecap="round" stroke-linejoin="round"/>
<path d="M135.906 49.5627C134.597 49.0458 132.904 48.5737 130.861 48.3152" stroke="white" stroke-width="0.989017" stroke-linecap="round" stroke-linejoin="round"/>
<path d="M119.202 57.4525C119.27 56.4073 119.394 55.216 119.642 54.0247C119.755 53.4627 119.89 52.9008 120.06 52.3613" stroke="white" stroke-width="0.989017" stroke-linecap="round" stroke-linejoin="round"/>
<path d="M117.307 55.4628C117.431 53.9118 117.713 52.0574 118.266 50.3829" stroke="white" stroke-width="0.989017" stroke-linecap="round" stroke-linejoin="round"/>
<path d="M115.207 56.6881C115.207 55.8114 115.253 54.8449 115.354 53.8559" stroke="white" stroke-width="0.989017" stroke-linecap="round" stroke-linejoin="round"/>
<path d="M59.8942 84.3016L63.2348 77.3336M63.2348 77.3336C62.2981 76.7829 60.8986 75.6365 60.2102 73.4787C59.0929 70.0284 61.7564 68.2639 61.7564 68.2639L63.2348 77.3336ZM87.4319 56.1261C88.4364 58.6548 88.6395 61.9927 88.5718 66.3421C88.4025 76.412 86.3033 84.5488 83.5496 87.1112C80.7958 89.6737 76.5861 88.5273 76.5861 88.5273" stroke="black" stroke-width="0.989017" stroke-linecap="round" stroke-linejoin="round"/>
<path fill-rule="evenodd" clip-rule="evenodd" d="M92.533 108.757C92.533 108.757 90.6483 129.863 89.9147 137.505C89.1811 145.136 89.9147 155.116 89.9147 155.116C89.9147 155.116 94.2372 161.05 95.0611 163.804C95.8737 166.569 93.8761 169.165 93.8761 169.165C93.8761 169.165 93.4246 170.997 92.7362 171.109C92.0365 171.233 91.1787 170.952 91.1787 170.952C91.1787 170.952 90.8063 171.637 90.1178 171.873C89.4407 172.109 88.7297 171.446 88.7297 171.446C88.7297 171.446 87.8607 171.963 87.4205 171.536C86.9803 171.109 86.2693 170.03 86.2693 170.03C86.2693 170.03 84.6441 169.558 83.2785 168.367C81.9129 167.164 78.7642 164.681 78.4256 158.881C78.087 153.082 76.6311 151.498 77.0374 141.675C77.4437 131.852 78.4256 109.6 78.4256 109.6L92.533 108.757Z" fill="white"/>
<path d="M82.9294 162.792C82.9294 162.792 84.611 164.928 85.4687 166.861C86.3264 168.783 86.27 170.03 86.27 170.03" stroke="black" stroke-width="0.989017" stroke-linecap="round" stroke-linejoin="round"/>
<path d="M87.0149 162.658C87.0149 162.658 87.8162 164.456 88.3015 166.973C88.7868 169.491 88.9109 170.873 88.9109 170.873" stroke="black" stroke-width="0.989017" stroke-linecap="round" stroke-linejoin="round"/>
<path d="M89.8363 162.557C89.8363 162.557 90.9762 165.108 91.2019 167.018C91.4163 168.929 91.2809 170.491 91.2809 170.491" stroke="black" stroke-width="0.989017" stroke-linecap="round" stroke-linejoin="round"/>
<path d="M92.3189 161.534C92.3189 161.534 93.1202 163.939 93.4588 165.422C93.7861 166.917 93.8087 168.536 93.8087 168.536" stroke="black" stroke-width="0.989017" stroke-linecap="round" stroke-linejoin="round"/>
<path d="M92.533 108.757C92.533 108.757 90.6483 129.863 89.9147 137.505C89.1811 145.136 89.9147 155.116 89.9147 155.116C89.9147 155.116 94.2372 161.05 95.0611 163.804C95.8737 166.569 93.8761 169.165 93.8761 169.165C93.8761 169.165 93.4246 170.997 92.7362 171.109C92.0365 171.233 91.1787 170.952 91.1787 170.952C91.1787 170.952 90.8063 171.637 90.1178 171.873C89.4407 172.109 88.7297 171.446 88.7297 171.446C88.7297 171.446 87.8607 171.963 87.4205 171.536C86.9803 171.109 86.2693 170.03 86.2693 170.03C86.2693 170.03 84.6441 169.558 83.2785 168.367C81.9129 167.164 78.7642 164.681 78.4256 158.881C78.087 153.082 76.6311 151.498 77.0374 141.675C77.4437 131.852 78.4256 109.6 78.4256 109.6" stroke="black" stroke-width="0.989017" stroke-linecap="round" stroke-linejoin="round"/>
<path fill-rule="evenodd" clip-rule="evenodd" d="M106.302 251.454C106.302 251.454 112.95 252.949 120.523 252.994C128.107 253.039 130.274 255.557 128.028 258.355C125.782 261.153 112.092 265.458 104.914 265.818C97.7361 266.188 94.9259 257.018 94.9259 257.018L106.302 251.454Z" fill="white" stroke="black" stroke-width="0.989017" stroke-linecap="round" stroke-linejoin="round"/>
<path fill-rule="evenodd" clip-rule="evenodd" d="M81.3943 265.2C81.3943 265.2 82.331 270.875 91.1341 273.235C99.9372 275.584 116.855 272.055 119.101 268.931C121.347 265.807 120.568 263.615 117.837 262.671C115.106 261.738 98.3571 259.996 95.2986 258.861C92.2401 257.726 81.3943 265.2 81.3943 265.2Z" fill="white" stroke="black" stroke-width="0.989017" stroke-linecap="round" stroke-linejoin="round"/>
<path fill-rule="evenodd" clip-rule="evenodd" d="M25.4383 142.945C25.4383 142.945 23.2376 160.882 36.6115 191.575C49.9853 222.268 68.7313 253.646 74.1148 259.693C79.4982 265.739 82.1391 267.773 82.1391 267.773L97.2284 259.367L96.619 258.299C96.619 258.299 99.2486 257.344 103.3 255.062C107.363 252.792 108.537 251.859 108.537 251.859C108.537 251.859 80.3785 163.062 78.584 155.262C76.7895 147.474 76.4622 145.361 76.4622 145.361L25.4383 142.945Z" fill="black" stroke="black" stroke-width="0.395607" stroke-linecap="round" stroke-linejoin="round"/>
<path fill-rule="evenodd" clip-rule="evenodd" d="M46.1485 83.672C46.1485 83.672 62.6147 84.6498 80.2209 81.649C90.8297 83.1101 94.2606 88.9093 95.3553 95.4277C96.4501 101.946 95.3102 111.926 95.3102 111.926C95.3102 111.926 91.7213 113.589 88.0082 114.365C84.3064 115.14 82.1056 115.421 82.1056 115.421L78.5957 146.272C78.5957 146.272 78.5167 150.419 69.3073 151.79C60.0867 153.172 46.8031 153.577 36.7698 151.149C26.7479 148.71 23.0799 146.519 23.9715 142.945C24.8631 139.371 32.3683 112.87 32.3683 112.87L21.2629 108.555L18.9267 107.554L31.5557 90.4939C31.5557 90.4939 38.237 83.3461 46.1485 83.672Z" fill="#EF8354"/>
<path fill-rule="evenodd" clip-rule="evenodd" d="M63.6303 119.276C63.6303 119.276 63.9914 117.433 65.3458 117.029C66.7001 116.635 77.5346 114.691 77.5346 114.691C78.4149 114.455 79.5322 115.163 80.0175 115.849C80.2545 116.242 80.3223 116.455 80.3336 116.928C80.39 118.872 77.4669 142.361 77.4669 142.361C77.4669 142.361 77.3315 143.507 76.2367 144.013C75.3226 144.429 66.4744 145.744 63.8109 146.137C63.7544 146.148 63.698 146.148 63.6303 146.171L62.987 146.261C62.7838 146.272 62.6146 146.261 62.4678 146.227C62.4678 146.227 60.3574 146.081 60.4928 144.384C60.4364 143.957 60.5154 143.563 60.5154 143.563L63.6303 119.276Z" fill="#D7F0F7" stroke="black" stroke-width="0.989017" stroke-linecap="round" stroke-linejoin="round"/>
<path fill-rule="evenodd" clip-rule="evenodd" d="M22.8199 109.162L18.4974 117.647C18.4974 117.647 12.956 127.47 22.4136 131.605C31.8713 135.741 54.5335 144.845 54.5335 144.845C54.5335 144.845 61.0907 145.991 66.9255 145.171C72.7491 144.361 73.5504 141.698 73.5504 141.698C73.5504 141.698 74.5661 141.282 74.6677 140.405C74.7693 139.529 74.2388 138.877 74.2388 138.877C74.9047 138.011 74.9386 136.505 73.7874 136.303C73.2118 136.202 73.5052 134.595 71.2255 134.516C68.9457 134.438 66.9594 135.044 65.2101 135.022C63.4607 134.999 61.655 134.685 61.655 134.685L62.4224 128.751C62.4224 128.751 55.6734 135.37 54.8947 135.168C54.1272 134.966 33.756 121.682 33.756 121.682L38.2479 115.152L22.8199 109.162Z" fill="white"/>
<path d="M63.235 137.775C64.2282 137.831 65.6954 137.842 67.5576 137.606C71.1465 137.157 73.4489 136.224 73.4489 136.224" stroke="black" stroke-width="0.989017" stroke-linecap="round" stroke-linejoin="round"/>
<path d="M63.2801 140.619C66.6772 140.708 72.6587 140.023 74.3065 138.787" stroke="black" stroke-width="0.989017" stroke-linecap="round" stroke-linejoin="round"/>
<path d="M63.1788 143.001C67.0725 143.271 70.0971 142.642 73.6184 141.608" stroke="black" stroke-width="0.989017" stroke-linecap="round" stroke-linejoin="round"/>
<path d="M48.5742 103.778L40.8772 115.77L32.345 112.926" stroke="black" stroke-width="0.989017" stroke-linecap="round" stroke-linejoin="round"/>
<path d="M83.9783 103.992L82.4434 113.342" stroke="black" stroke-width="0.989017" stroke-linecap="round" stroke-linejoin="round"/>
<path d="M57.6488 83.7619C56.0913 94.641 62.4566 98.833 68.5172 98.7319C77.467 98.5858 80.5368 90.7524 78.6859 83.0089" stroke="#D2521A" stroke-width="0.989017" stroke-linecap="round" stroke-linejoin="round"/>
<path fill-rule="evenodd" clip-rule="evenodd" d="M77.8278 49.8886C87.4999 51.5744 88.8316 56.261 88.5721 66.3421C88.3012 76.412 86.3036 84.5488 83.5498 87.1112C80.796 89.6737 76.5864 88.5273 76.5864 88.5273C77.0829 93.6859 71.5302 96.7541 66.7901 95.8662C66.7788 95.8662 66.7676 95.855 66.745 95.855C66.6886 95.8437 66.6321 95.8325 66.5757 95.8212C66.5305 95.81 66.4967 95.7988 66.4515 95.7988C58.3482 93.9781 59.8944 84.3016 59.8944 84.3016L63.235 77.3336C62.2983 76.7829 60.8988 75.6365 60.2104 73.4787C59.0931 70.0284 61.7566 68.2639 61.7566 68.2639C55.4251 56.9241 66.3725 47.9106 77.8278 49.8886Z" fill="white"/>
<path d="M62.3661 69.9044C62.3661 69.9044 63.9461 69.9268 64.6797 72.006C65.402 74.0852 63.8333 75.681 63.8333 75.681" stroke="black" stroke-width="0.989017" stroke-linecap="round" stroke-linejoin="round"/>
<path d="M62.4789 73.3547L64.6796 72.006" stroke="black" stroke-width="0.989017" stroke-linecap="round" stroke-linejoin="round"/>
<path d="M74.0585 71.4777C74.0585 71.4777 74.2616 69.466 76.011 69.3086C77.7716 69.1513 77.749 70.8821 77.749 70.8821" stroke="black" stroke-width="0.989017" stroke-linecap="round" stroke-linejoin="round"/>
<path d="M83.0529 70.7029C83.0529 70.7029 83.256 68.6912 85.0053 68.5338C86.7547 68.3877 86.7321 70.1072 86.7321 70.1072" stroke="black" stroke-width="0.989017" stroke-linecap="round" stroke-linejoin="round"/>
<path d="M81.022 69.3539C81.022 69.3539 81.3267 72.2984 82.2409 74.3551C83.155 76.4005 81.0445 76.6478 81.0445 76.6478" stroke="black" stroke-width="0.989017" stroke-linecap="round" stroke-linejoin="round"/>
<path fill-rule="evenodd" clip-rule="evenodd" d="M81.349 80.4355C80.8524 80.3231 80.2768 80.1545 79.6674 79.8961C78.0986 79.233 76.4057 77.9068 76.4057 77.9068C76.4057 77.9068 75.2771 80.694 78.1212 82.3011C78.4936 82.5147 78.8435 82.6383 79.1708 82.7057L81.349 80.4355Z" stroke="black" stroke-width="0.989017" stroke-linecap="round" stroke-linejoin="round"/>
<path d="M76.5862 88.5272C74.0469 87.8304 71.3269 86.729 68.6635 83.6608" stroke="black" stroke-width="0.989017" stroke-linecap="round" stroke-linejoin="round"/>
<path fill-rule="evenodd" clip-rule="evenodd" d="M87.8385 57.1373C85.017 56.5192 75.2885 54.6648 71.2142 57.407C66.4177 60.6326 67.93 66.3418 68.325 67.9265C68.7313 69.5224 67.535 70.4889 67.0836 71.2419C67.0836 71.2419 65.3568 66.87 61.7566 68.2636C61.7566 68.2636 60.312 69.2189 59.996 71.0958V71.107V71.1183C59.9847 71.1857 59.9734 71.2531 59.9621 71.3318V71.343C59.9508 71.4442 59.9396 71.5566 59.9396 71.669C59.9396 71.7701 59.9283 71.8713 59.9396 71.9836V71.9949C59.9396 72.1522 59.9508 72.3208 59.9847 72.5006V72.5119C59.996 72.5793 60.0073 72.658 60.0186 72.7366V72.7479V72.7591V72.7704L60.0298 72.7816V72.7928V72.8041V72.8153V72.8266L60.0411 72.8378V72.849V72.8603V72.8715V72.8827L60.0524 72.894V72.9052V72.9165V72.9277L60.0637 72.9389V72.9502V72.9614V72.9727V72.9839L60.075 72.9951V73.0064V73.0176V73.0288L60.0863 73.0401V73.0513V73.0626V73.0738L60.0976 73.085V73.0963V73.1075V73.1188L60.1088 73.13V73.1412V73.1525L60.1201 73.1637V73.175V73.1862V73.1974L60.1314 73.2087V73.2199V73.2311V73.2424V73.2536L60.1427 73.2649V73.2761V73.2873L60.154 73.2986V73.3098V73.3211L60.1653 73.3323V73.3435V73.3548L60.1766 73.366V73.3772V73.3885L60.1878 73.3997V73.411V73.4222L60.1991 73.4334V73.4447V73.4559V73.4672L60.2104 73.4784L60.233 73.5571V73.5795L60.2443 73.602L60.2668 73.647V73.6695L60.2781 73.6807L60.2894 73.7256L60.3007 73.7706H60.312L60.3346 73.8493L60.3458 73.8718L60.3571 73.8942L60.3797 73.9617V73.9729L60.4136 74.0516L60.4248 74.0628L60.4587 74.1415V74.1527V74.164L60.4813 74.1977L60.4926 74.2426L60.5039 74.2539L60.5264 74.3101L60.5377 74.3325L60.549 74.355L60.5716 74.3887L60.5829 74.4112V74.4224L60.6054 74.4674L60.6167 74.5011L60.628 74.5124L60.6506 74.5686L60.6619 74.591L60.6731 74.6023L60.6957 74.636L60.707 74.6697V74.6809L60.7521 74.7484L60.7634 74.7821L60.786 74.8158L60.7973 74.8383L60.8086 74.8495L60.8199 74.8832L60.8424 74.917L60.865 74.9507L60.8763 74.9844L60.8876 74.9956L60.8989 75.0181L60.9214 75.0406L60.9327 75.0631L60.944 75.0743L60.9553 75.108L60.9779 75.1417L61.0004 75.1754L61.023 75.2092V75.2204L61.0343 75.2316L61.0569 75.2654L61.0794 75.2878V75.2991L61.102 75.3215L61.1246 75.3553V75.3665L61.1359 75.389L61.1584 75.4115L61.1697 75.4339L61.181 75.4452L61.2036 75.4789L61.2262 75.5014L61.2487 75.5351L61.2713 75.5576V75.5688L61.2826 75.5913L61.3052 75.6138L61.3164 75.6362L61.3277 75.6475L61.3503 75.6699L61.3729 75.7037C61.9936 76.5016 62.6933 77.0186 63.2351 77.3333L61.4744 81.0083C60.6731 80.4239 59.3188 79.3113 59.0931 78.2998C58.7771 76.8388 59.2172 75.5351 59.2172 75.5351C59.2172 75.5351 55.0527 71.9949 56.3845 68.5446C55.8315 68.4659 55.064 68.185 55.0189 67.1173C54.9511 65.4315 56.3732 64.1727 56.3732 64.1727C56.3732 64.1727 53.6194 63.5097 54.511 58.2949C55.3913 53.0801 59.5445 54.204 59.9283 51.9675C60.3007 49.7422 62.2532 46.3819 66.7563 47.1349C71.2594 47.8879 73.1554 47.3372 74.284 45.8087C75.4126 44.2802 78.8323 43.2687 80.6267 44.8309C82.4325 46.4043 84.3624 48.4835 86.044 48.4835C87.7369 48.4835 90.818 48.9218 91.3484 53.1251C91.8789 57.3171 87.8385 57.1373 87.8385 57.1373Z" fill="black" stroke="black" stroke-width="0.989017" stroke-linecap="round" stroke-linejoin="round"/>
<path d="M73.2122 66.6791C73.2122 66.6791 73.5734 66.106 75.018 65.6002C76.4513 65.0945 77.3203 65.2631 77.3203 65.2631" stroke="black" stroke-width="0.989017" stroke-linecap="round" stroke-linejoin="round"/>
<path d="M83.3914 64.9144C83.3914 64.9144 84.757 64.6447 85.6937 64.8919C86.6304 65.128 86.9803 65.4651 86.9803 65.4651" stroke="black" stroke-width="0.989017" stroke-linecap="round" stroke-linejoin="round"/>
<path d="M74.6448 90.5613L75.4574 88.2798" stroke="black" stroke-width="0.989017" stroke-linecap="round" stroke-linejoin="round"/>
<path d="M29.2529 119.051L33.8125 121.58" stroke="black" stroke-width="0.989017" stroke-linecap="round" stroke-linejoin="round"/>
<path d="M22.8877 109.061L18.5652 117.546C18.5652 117.546 13.0237 127.368 22.4814 131.515C31.939 135.651 54.59 144.755 54.59 144.755C54.59 144.755 61.1584 145.89 66.9933 145.081C72.8169 144.271 73.6182 141.608 73.6182 141.608C73.6182 141.608 74.6339 141.181 74.7355 140.304C74.8371 139.439 74.3066 138.787 74.3066 138.787C74.9725 137.91 75.0063 136.416 73.8552 136.202C73.2796 136.101 73.573 134.505 71.2933 134.426C69.0022 134.336 67.0272 134.943 65.2778 134.932C63.5285 134.91 61.7227 134.584 61.7227 134.584L62.3773 129.122C62.3773 129.122 55.7412 135.269 54.9624 135.067C54.195 134.865 33.8125 121.58 33.8125 121.58L38.3156 115.051" stroke="black" stroke-width="0.989017" stroke-linecap="round" stroke-linejoin="round"/>
<path d="M65.2435 156.51L61.1693 164.309C61.1693 164.309 77.4775 218.053 83.3463 229.741C89.215 241.441 95.0047 255.399 95.0047 255.399" stroke="white" stroke-width="0.989017" stroke-linecap="round" stroke-linejoin="round"/>
<path d="M77.884 115.972L66.3497 118.321C66.3497 118.321 65.3001 118.467 65.0406 120.097C64.7697 121.715 64.228 126.278 64.228 126.278L63.4718 133.223" stroke="#6CA3B7" stroke-width="0.989017" stroke-linecap="round" stroke-linejoin="round"/>
<path d="M69.8263 53.6761C69.8263 53.6761 70.8872 52.0914 72.8397 51.6868C74.8034 51.2822 76.0674 52.215 76.0674 52.215" stroke="white" stroke-width="0.989017" stroke-linecap="round" stroke-linejoin="round"/>
<path d="M64.8259 57.5644C64.0133 58.6433 63.7086 59.7447 63.7086 60.9585" stroke="white" stroke-width="0.989017" stroke-linecap="round" stroke-linejoin="round"/>
<path d="M59.77 60.7899C58.9235 62.3971 59.0702 64.184 59.77 65.3753" stroke="white" stroke-width="0.989017" stroke-linecap="round" stroke-linejoin="round"/>
<path d="M79.4641 48.8207C80.9087 48.6297 82.7145 49.7198 82.6016 51.3045" stroke="white" stroke-width="0.989017" stroke-linecap="round" stroke-linejoin="round"/>
<path d="M67.1058 122.965C67.5411 123.481 68.3752 123.439 68.9688 122.871C69.5624 122.303 69.6907 121.425 69.2554 120.91C68.8201 120.394 67.9861 120.436 67.3925 121.004C66.7989 121.572 66.6705 122.45 67.1058 122.965Z" fill="black"/>
<path d="M32.7293 153.565C32.7293 153.565 33.824 154.824 35.1784 155.802C36.5214 156.78 37.2888 157.342 37.2888 157.342" stroke="white" stroke-width="0.989017" stroke-linecap="round" stroke-linejoin="round"/>
<path d="M34.038 159.106L36.6563 160.488" stroke="white" stroke-width="0.989017" stroke-linecap="round" stroke-linejoin="round"/>
<path fill-rule="evenodd" clip-rule="evenodd" d="M69.8718 30.8052C73.4269 30.794 81.4061 30.2321 84.758 25.6916C89.1144 19.7688 84.6339 13.2729 75.3794 13.0256C53.8458 12.4637 53.7442 28.9171 65.6057 30.6254L67.5469 34.8737L69.8718 30.8052Z" fill="white" stroke="black" stroke-width="0.989017" stroke-linecap="round" stroke-linejoin="round"/>
<path fill-rule="evenodd" clip-rule="evenodd" d="M66.3959 21.848C67.0167 21.848 67.5132 22.365 67.5132 22.9944C67.5132 23.6237 67.0167 24.1295 66.3959 24.1295C65.7752 24.1295 65.2673 23.6237 65.2673 22.9944C65.2673 22.365 65.7752 21.848 66.3959 21.848ZM78.2913 20.0836C78.9121 20.0836 79.4086 20.6005 79.4086 21.2299C79.4086 21.8593 78.9121 22.3763 78.2913 22.3763C77.6706 22.3763 77.1627 21.8593 77.1627 21.2299C77.1627 20.6005 77.6706 20.0836 78.2913 20.0836ZM72.2308 21.0726C72.8515 21.0726 73.3481 21.5783 73.3481 22.2189C73.3481 22.8483 72.8515 23.354 72.2308 23.354C71.61 23.354 71.1022 22.8483 71.1022 22.2189C71.1022 21.5783 71.61 21.0726 72.2308 21.0726Z" fill="black"/>
<path fill-rule="evenodd" clip-rule="evenodd" d="M241.78 31.3781C246.147 25.4553 241.656 18.9594 232.401 18.7121C218.136 18.33 213.283 25.4329 215.077 30.7713L212.651 35.1544L217.695 34.3339C218.959 35.3117 220.63 36.0197 222.627 36.3119C228.756 36.5704 237.83 36.7502 241.78 31.3781Z" fill="white" stroke="black" stroke-width="0.989017" stroke-linecap="round" stroke-linejoin="round"/>
<path fill-rule="evenodd" clip-rule="evenodd" d="M223.417 27.5343C224.038 27.5343 224.546 28.0401 224.546 28.6694C224.546 29.31 224.038 29.8158 223.417 29.8158C222.797 29.8158 222.3 29.31 222.3 28.6694C222.3 28.0401 222.797 27.5343 223.417 27.5343ZM235.313 25.7698C235.933 25.7698 236.441 26.2868 236.441 26.9162C236.441 27.5456 235.933 28.0513 235.313 28.0513C234.692 28.0513 234.195 27.5456 234.195 26.9162C234.195 26.2868 234.692 25.7698 235.313 25.7698ZM229.252 26.7588C229.873 26.7588 230.381 27.2646 230.381 27.894C230.381 28.5233 229.873 29.0403 229.252 29.0403C228.631 29.0403 228.124 28.5233 228.124 27.894C228.124 27.2646 228.631 26.7588 229.252 26.7588Z" fill="black"/>
</svg>
