<svg width="22" height="22" viewBox="0 0 22 22" fill="none" xmlns="http://www.w3.org/2000/svg">
<path d="M11 0C4.92545 0 0 4.92545 0 11C0 17.0746 4.92545 22 11 22C17.0746 22 22 17.0746 22 11C22 4.92545 17.0746 0 11 0ZM14.5382 11.1694L9.17567 15.071C9.14627 15.0921 9.11162 15.1047 9.07552 15.1074C9.03942 15.1101 9.00327 15.1029 8.97104 15.0864C8.93881 15.0699 8.91176 15.0448 8.89285 15.0139C8.87393 14.9831 8.8639 14.9476 8.86384 14.9114V7.11317C8.86372 7.0769 8.87365 7.0413 8.89252 7.01032C8.9114 6.97934 8.93848 6.9542 8.97077 6.93767C9.00306 6.92114 9.0393 6.91388 9.07547 6.91669C9.11163 6.91949 9.14632 6.93226 9.17567 6.95357L14.5382 10.8527C14.5635 10.8706 14.5842 10.8943 14.5984 10.9219C14.6127 10.9494 14.6201 10.98 14.6201 11.011C14.6201 11.0421 14.6127 11.0727 14.5984 11.1002C14.5842 11.1278 14.5635 11.1515 14.5382 11.1694Z" fill="#D2521A"/>
</svg>
