<svg width="30" height="24" viewBox="0 0 30 24" fill="none" xmlns="http://www.w3.org/2000/svg">
<path d="M29.5876 2.84684C28.5019 3.32792 27.3357 3.65297 26.1096 3.79989C27.3747 3.0429 28.3211 1.85148 28.7724 0.447947C27.5838 1.15395 26.2829 1.6509 24.9264 1.91719C24.0141 0.943152 22.8058 0.297546 21.489 0.0806033C20.1722 -0.13634 18.8207 0.0875171 17.6442 0.71742C16.4677 1.34732 15.532 2.34803 14.9825 3.56417C14.433 4.78031 14.3004 6.14385 14.6053 7.44309C12.1969 7.32216 9.84081 6.69618 7.69 5.60576C5.53918 4.51535 3.64168 2.98487 2.12064 1.11366C1.60055 2.0108 1.3015 3.05097 1.3015 4.15875C1.30092 5.15601 1.54651 6.13799 2.01646 7.01757C2.48642 7.89715 3.16622 8.64713 3.99554 9.20098C3.03375 9.17037 2.09317 8.91049 1.2521 8.44295V8.52096C1.252 9.91965 1.73582 11.2753 2.62146 12.3579C3.5071 13.4405 4.74001 14.1833 6.11099 14.4603C5.21876 14.7018 4.28333 14.7374 3.37534 14.5644C3.76215 15.7678 4.51562 16.8203 5.53027 17.5742C6.54492 18.3282 7.76995 18.7461 9.03387 18.7692C6.8883 20.4535 4.23854 21.3672 1.51084 21.3632C1.02765 21.3633 0.54488 21.3351 0.0650024 21.2786C2.83377 23.0589 6.05682 24.0037 9.34852 24C20.4913 24 26.5828 14.7711 26.5828 6.76698C26.5828 6.50694 26.5763 6.24429 26.5646 5.98425C27.7495 5.12738 28.7723 4.0663 29.585 2.85074L29.5876 2.84684Z" fill="#FAFAFA"/>
</svg>
